<?xml version="1.0" encoding="UTF-8"?>
<svg width="12px" height="6px" viewBox="0 0 12 6" version="1.1" xmlns="http://www.w3.org/2000/svg" xmlns:xlink="http://www.w3.org/1999/xlink">
    <title>arrow-right-336-svgrepo-com</title>
    <g id="1.-Design" stroke="none" stroke-width="1" fill="none" fill-rule="evenodd">
        <g id="Archive" transform="translate(-371, -210)" fill="#000000" fill-rule="nonzero">
            <g id="Top-story" transform="translate(260, 112)">
                <g id="filtr" transform="translate(0, 74)">
                    <g id="arrow-right-336-svgrepo-com" transform="translate(117, 27) rotate(90) translate(-117, -27)translate(114, 21)">
                        <path d="M0.199554915,11.8246125 L0.199554915,11.8246125 C0.420416553,12.0584625 0.777975646,12.0584625 0.998272193,11.8246125 L5.66913095,6.86647713 C6.11028968,6.39818319 6.11028968,5.63848128 5.66913095,5.17019334 L0.964380375,0.175475946 C0.745778555,-0.0559740258 0.392738553,-0.0589680254 0.171311824,0.169481947 L0.171311824,0.169481947 C-0.0546334501,0.402725918 -0.0574578138,0.787073871 0.165098551,1.02391784 L4.47105476,5.59411128 C4.6919164,5.82855525 4.6919164,6.20810921 4.47105476,6.44255318 L0.199554915,10.9767706 C-0.0213067226,11.2106206 -0.0213067226,11.5907686 0.199554915,11.8246125" id="arrow_right-[#336]"></path>
                    </g>
                </g>
            </g>
        </g>
    </g>
</svg>