<?xml version="1.0" encoding="UTF-8"?>
<svg width="58px" height="74px" viewBox="0 0 58 74" version="1.1" xmlns="http://www.w3.org/2000/svg" xmlns:xlink="http://www.w3.org/1999/xlink">
    <title>logo@1x</title>
    <defs>
        <path d="M25.0525841,0.347404123 C38.4315195,-1.38558267 49.0064436,3.53585245 48.5933144,11.3029362 C48.1803488,19.0701835 36.9313977,26.818415 23.5524622,28.5513201 C10.1734994,30.2843341 -0.401424604,25.3628173 0.0117045843,17.5957335 C0.424751986,9.82864972 11.6735395,2.08033643 25.0525841,0.347404123" id="path-1"></path>
        <radialGradient cx="64.2312585%" cy="46.7122472%" fx="64.2312585%" fy="46.7122472%" r="120.475229%" gradientTransform="translate(0.6423, 0.4671), scale(0.5946, 1), translate(-0.6423, -0.4671)" id="radialGradient-3">
            <stop stop-color="#FCC800" offset="0%"></stop>
            <stop stop-color="#FAE016" offset="100%"></stop>
        </radialGradient>
    </defs>
    <g id="1.-Design" stroke="none" stroke-width="1" fill="none" fill-rule="evenodd">
        <g id="HP-2" transform="translate(-931, -11)">
            <g id="Group-80" transform="translate(932, 12)">
                <path d="M27.8834007,71.9223027 C-4.23252743,53.6168057 0.208434136,13.6718034 0.208434136,13.6718034 C15.9086791,9.30223132 27.889889,0.0904197818 27.889889,0.0904197818 L27.9843248,0 L28.0942181,0.0904197818 C28.0942181,0.0904197818 40.0753463,9.30223132 55.7755095,13.6718034 C55.7755095,13.6717489 60.2165528,53.6168601 28.1007065,71.9223027 L27.9908949,72 L27.8834007,71.9223027 Z" id="Fill-42" fill="#FEFEFE"></path>
                <path d="M27.8834007,71.9223027 C-4.23252743,53.6168057 0.208434136,13.6718034 0.208434136,13.6718034 C15.9086791,9.30223132 27.889889,0.0904197818 27.889889,0.0904197818 L27.9843248,0 L28.0942181,0.0904197818 C28.0942181,0.0904197818 40.0753463,9.30223132 55.7755095,13.6718034 C55.7755095,13.6717489 60.2165528,53.6168601 28.1007065,71.9223027 L27.9908949,72 L27.8834007,71.9223027 Z" id="Stroke-43" stroke="#AEAFB0" stroke-width="0.5669"></path>
                <path d="M27.8995398,71.9223027 C23.5594478,69.4484404 19.8920471,66.5772105 16.7859993,63.4649883 C7.73941338,62.3407754 1.58080601,57.8643015 1.90830508,51.7073382 C2.03188398,49.3830404 3.06702422,47.0603499 4.80757015,44.8809307 C-1.46758251,28.9139251 0.224655059,13.6718034 0.224655059,13.6718034 C15.9249,9.30214959 27.90611,0.0904197818 27.90611,0.0904197818 L28.0004639,0 L28.1103573,0.0904197818 C28.1103573,0.0904197818 40.0915944,9.30214959 55.7917576,13.6718034 C55.7917576,13.6717489 57.1999791,26.3437312 52.6923618,40.6836984 C53.3816829,41.9994574 53.7144435,43.449661 53.6315942,45.0075838 C53.3976585,49.4068236 49.8985736,53.8002878 44.5302933,57.2268951 C40.5572576,62.7412486 35.2368767,67.8640101 28.1168456,71.9223027 L28.0071159,72 L27.8995398,71.9223027 Z" id="Fill-44" fill="#FEFEFE"></path>
                <path d="M27.9052648,70.0477609 C-2.53478293,52.6975152 1.67447843,14.8369082 1.67447843,14.8369082 C16.5554169,10.6953607 27.9114533,1.96428054 27.9114533,1.96428054 L28.0009274,1.87854657 L28.1050412,1.96428054 C28.1050412,1.96428054 39.4610776,10.6953607 54.3419343,14.8369082 C54.3419343,14.8369082 58.5512774,52.6975969 28.1112024,70.0477609 L28.0071159,70.1215079 L27.9052648,70.0477609 Z" id="Fill-45" fill="#261A6A"></path>
                <path d="M27.9104446,68.3456678 C-1.0076989,51.8624058 2.99129023,15.8951928 2.99129023,15.8951928 C17.1280291,11.9610469 27.9161697,3.66582882 27.9161697,3.66582882 L28.0014726,3.58483514 L28.1002431,3.66582882 C28.1002431,3.66582882 38.8884382,11.9610469 53.0256405,15.8951928 C53.0257222,15.8951928 57.0241934,51.8624875 28.1059681,68.3456678 L28.0071159,68.4152466 L27.9104446,68.3456678 Z" id="Fill-46" fill="#FEFEFE"></path>
                <path d="M27.9161697,66.404789 C0.733146917,50.9107778 4.49220269,17.101353 4.49220269,17.101353 C17.7806554,13.4029142 27.9218947,5.60627166 27.9218947,5.60627166 L28.0014726,5.52941893 L28.0945998,5.60627166 C28.0945998,5.60627166 38.2357573,13.4029142 51.52421,17.101353 C51.5242918,17.1012712 55.2832658,50.9107778 28.1002431,66.404789 L28.0071159,66.4706628 L27.9161697,66.404789 Z" id="Fill-47" fill="#2F3293"></path>
                <path d="M51.5242918,17.1012712 C38.2357573,13.4029142 28.094518,5.60627166 28.094518,5.60627166 L28.0014726,5.52941893 L27.9219492,5.60627166 C27.9219492,5.60627166 17.7806554,13.4029142 4.49220269,17.101353 C4.49220269,17.1012712 3.22342663,28.5122804 7.49029271,41.1136214 C7.49034724,41.1136214 37.8597863,38.9015106 51.5242918,17.1012712" id="Fill-48" fill="#261A6A"></path>
                <g id="Group-53" transform="translate(3.4674, 33.9081)">
                    <g id="Group-51">
                        <mask id="mask-2" fill="white">
                            <use xlink:href="#path-1"></use>
                        </mask>
                        <g id="Clip-50"></g>
                        <path d="M25.0525841,0.347404123 C38.4315195,-1.38558267 49.0064436,3.53585245 48.5933144,11.3029362 C48.1803488,19.0701835 36.9313977,26.818415 23.5524622,28.5513201 C10.1734994,30.2843341 -0.401424604,25.3628173 0.0117045843,17.5957335 C0.424751986,9.82864972 11.6735395,2.08033643 25.0525841,0.347404123" id="Fill-49" fill="url(#radialGradient-3)" mask="url(#mask-2)"></path>
                    </g>
                    <path d="M9.80325346,7.60681311 C5.25534285,10.3615788 2.30286225,13.8535151 2.11832539,17.3228941 C1.94622004,20.5586091 4.21325078,23.1862314 8.02083302,24.8287984 L8.82637223,22.9755607 C5.33145851,21.5370988 3.25485322,19.2468548 3.40569418,16.4108775 C3.55871609,13.5337086 5.97628791,10.6225131 9.76702219,8.22969888 L9.80325346,7.60681311 Z M43.3915506,6.59710284 C44.6837993,7.82900767 45.368186,9.31356481 45.2791481,10.9870255 C45.0549722,15.2024562 39.9835211,19.4938951 32.8567564,22.1152242 L33.0330328,24.0552584 C40.7264666,21.1764822 46.2325294,16.3547295 46.4867209,11.5758574 C46.6093456,9.26907686 45.4924464,7.27128734 43.4613415,5.71922184 L43.3915506,6.59710284 Z M25.0137084,1.07694656 C38.0058771,-0.605940211 48.2828814,4.02862528 47.8911529,11.3939009 C47.4994517,18.7592582 36.5834248,26.1389181 23.5913106,27.8218049 C10.5991419,29.5046644 0.32213761,24.8700444 0.713866084,17.5047689 C1.10559456,10.139466 12.0215942,2.75983332 25.0137084,1.07694656 Z M24.9749145,1.80648899 C37.5803164,0.173729489 47.5592646,4.52147983 47.1889369,11.4848655 C46.8185546,18.4483602 36.2355065,25.459503 23.6301045,27.0922625 C11.0247026,28.725022 1.04578161,24.3772716 1.41608211,17.413777 C1.78649166,10.4503913 12.3695943,3.43924849 24.9749145,1.80648899 Z M9.05621862,25.2563241 L10.1054261,22.8637551 L10.5601844,23.0088517 L10.1070345,24.0420455 L11.2570844,23.2311008 L11.7696655,23.3945865 L10.5499884,24.2256094 L10.7941201,25.810639 L10.2642276,25.6415957 L10.0544188,24.1622147 L9.51097697,25.401339 L9.05621862,25.2563241 Z M12.1742344,24.774285 C12.0651044,25.0700631 12.0297183,25.3059065 12.0675035,25.4810522 C12.1056976,25.6568791 12.2156455,25.7656062 12.3981922,25.8081599 C12.5813387,25.8507136 12.7483188,25.8063891 12.8998686,25.6746416 C13.0507095,25.5433572 13.1810767,25.329608 13.2901249,25.0339116 C13.3973193,24.7431734 13.4310152,24.5106265 13.3917578,24.3363525 C13.3521733,24.1614247 13.2419801,24.0531607 13.0609328,24.0110701 C12.8804034,23.9690613 12.7144866,24.013631 12.5622553,24.1439891 C12.4104056,24.2750283 12.2809381,24.4846911 12.1742344,24.774285 Z M11.6822634,24.6562135 C11.823917,24.2719499 12.0298818,23.9913734 12.3004305,23.8133671 C12.5707338,23.6358512 12.8688171,23.5846342 13.1931537,23.6600975 C13.517027,23.7354519 13.7320701,23.9059663 13.8381195,24.171096 C13.943978,24.4366615 13.9262849,24.7609904 13.7845495,25.1452813 C13.638125,25.5424309 13.4306335,25.8318069 13.1623749,26.0140359 C12.8943071,26.1957472 12.5957058,26.2486533 12.2668164,26.1721274 C11.9372999,26.0954382 11.7205393,25.9233164 11.6172979,25.6552717 C11.5138111,25.3876902 11.5353754,25.0544529 11.6822634,24.6562135 Z M14.9850069,25.0926749 L15.215971,25.1230237 C15.368066,25.1430201 15.4835208,25.1303793 15.562499,25.0849651 C15.6413136,25.0401775 15.6985912,24.9557512 15.7338137,24.8317407 C15.7687637,24.7088744 15.7615665,24.6172014 15.7124948,24.5556593 C15.6634231,24.4940355 15.5629624,24.4536612 15.4119579,24.433801 L15.1809665,24.4034522 L14.9850069,25.0926749 Z M14.1350032,26.4004789 L14.8372465,23.9308393 L15.5107283,24.0192703 C15.8332657,24.0616605 16.050517,24.1517806 16.1613918,24.2897124 C16.2722939,24.4275351 16.2906957,24.6280169 16.2157251,24.891512 C16.1439441,25.1441098 16.0230096,25.3256577 15.8525945,25.4372454 C15.682343,25.5483154 15.4662094,25.5869188 15.2041665,25.5525653 L14.8668259,25.5082136 L14.5959773,26.4610131 L14.1350032,26.4004789 Z M17.2404512,25.268529 L17.5338727,25.2788813 C17.7180279,25.2853652 17.8496219,25.264497 17.9282184,25.216304 C18.0068149,25.1680565 18.0584219,25.08126 18.0838574,24.9552336 C18.1107378,24.821688 18.0971341,24.7279445 18.0429644,24.6738943 C17.9888764,24.619844 17.8659246,24.5894135 17.6742723,24.5826027 L17.3808508,24.5722776 L17.2404512,25.268529 Z M16.468199,26.6569453 L16.9695755,24.1706329 L17.936397,24.2048229 C18.2067275,24.2143308 18.3951356,24.2720044 18.5017848,24.3777348 C18.6090337,24.483002 18.6406304,24.6434638 18.5973655,24.8580847 C18.561734,25.0346744 18.4986769,25.1698273 18.4076489,25.2639521 C18.3165391,25.3581042 18.1881075,25.4225069 18.0221907,25.457269 C18.1462058,25.4766389 18.2311543,25.5207999 18.2755097,25.5913322 C18.3204921,25.6612925 18.3356225,25.7772118 18.3217189,25.9400709 L18.2908037,26.3005513 C18.2830885,26.4005607 18.2817527,26.4851232 18.2870143,26.5530674 C18.2928211,26.6211206 18.3052526,26.6777862 18.3260535,26.7225739 L17.7866465,26.7035037 C17.7769685,26.6678153 17.7715706,26.6276045 17.770889,26.5824082 C17.7697168,26.5371575 17.7741332,26.4753157 17.783157,26.3979998 L17.8262038,26.0205197 C17.843815,25.8687213 17.8401892,25.7764217 17.8142357,25.7436755 C17.788882,25.7108749 17.7134479,25.6925675 17.5879607,25.6881541 L17.1589104,25.6730342 L16.9569804,26.6741629 L16.468199,26.6569453 Z M17.4853463,23.344541 L17.7044242,23.352278 L17.9084261,23.7280418 L18.2568079,23.3718113 L18.47913,23.3796028 L18.0446819,23.990774 L17.6688744,23.9774794 L17.4853463,23.344541 Z M19.0278061,26.6876755 L19.4067759,24.2005185 L19.9069256,24.1902479 L19.5280376,26.6774048 L19.0278061,26.6876755 Z M21.6370302,26.5660351 L21.0736598,26.598182 L20.5109437,24.1632772 L21.0583658,24.1320022 L21.4487857,26.0383639 L22.2878572,24.061824 L22.8030828,24.0324015 L21.6370302,26.5660351 Z M23.2007544,26.4248887 L23.2905556,23.9621143 L24.0241503,23.8539321 L24.8467828,25.7019936 L24.9189727,23.7219393 L25.3752032,23.6545944 L25.2853475,26.1173689 L24.5809505,26.2213284 L23.7313558,24.3188897 L23.6570122,26.3576256 L23.2007544,26.4248887 Z M26.1773619,25.9590593 L26.1425756,23.5179976 L26.6492136,23.4159723 L26.684,25.8570612 L26.1773619,25.9590593 Z M29.4880387,24.4741208 C29.4874117,24.7269365 29.4086788,24.9400864 29.2518675,25.1123716 C29.0950834,25.2847386 28.8674998,25.4092122 28.5691166,25.4854384 C28.2153369,25.5758037 27.9396902,25.5394886 27.7434034,25.3766295 C27.5471984,25.2138521 27.4356966,24.9300337 27.4088708,24.5241663 C27.3822085,24.1193341 27.455707,23.7848708 27.629339,23.5208582 C27.8029165,23.2562189 28.0644959,23.0792751 28.4144862,22.989945 C28.7001925,22.9169608 28.9303933,22.9246161 29.1059882,23.0120119 C29.2816377,23.0995167 29.383107,23.2569817 29.4098238,23.4840255 L28.9411346,23.6037044 C28.9279943,23.4895831 28.8779957,23.4086439 28.7910025,23.3604509 C28.7034367,23.3124214 28.5923166,23.3055561 28.4571513,23.3400731 C28.2599376,23.3905 28.1159667,23.5033136 28.0253204,23.6791677 C27.9345922,23.8545314 27.8992879,24.0895302 27.918753,24.3843003 C27.9387633,24.6874886 28.0030473,24.8993035 28.111632,25.0208621 C28.2196716,25.1426387 28.3756105,25.1771557 28.5783857,25.1254211 C28.7091618,25.0920755 28.8137935,25.0272643 28.8918448,24.9306603 C28.9703595,24.8339746 29.0093715,24.7229318 29.0099985,24.596197 L29.4880387,24.4741208 Z M30.3003116,24.9575492 L30.0170043,22.5799639 L31.5840546,22.0946012 L31.6309726,22.4880458 L30.5767489,22.8144723 L30.64365,23.3757615 L31.6321993,23.0695493 L31.6783267,23.4563738 L30.6897228,23.7625588 L30.7659203,24.4019811 L31.8567842,24.0641397 L31.9040566,24.4608261 L30.3003116,24.9575492 Z M10.7342254,14.4878974 L10.7756365,13.7083912 L11.0758735,13.6695698 C11.1586411,13.658836 11.2267962,13.6435254 11.2799572,13.6237742 C11.3246397,13.6071559 11.3562365,13.5886306 11.3746383,13.5683073 C11.3929584,13.5480112 11.4086341,13.5141753 11.4215291,13.467072 C11.4369049,13.4108695 11.4468828,13.3396561 11.4515173,13.2535407 L11.707399,8.44268528 C11.7119517,8.35659715 11.7093891,8.28693659 11.6998201,8.23403053 C11.6917778,8.18962431 11.6795644,8.15935725 11.6630981,8.14352902 C11.6467409,8.12778252 11.6165891,8.11726669 11.5731606,8.11209051 C11.5213082,8.10593357 11.4538346,8.1081675 11.371067,8.11890128 L11.070939,8.1578044 L11.1123501,7.37824367 L10.3948128,7.4712243 L10.3619893,8.08901562 L10.5064237,8.07024514 C10.6012411,8.05795851 10.6806009,8.05564285 10.7441215,8.06321642 C10.8159025,8.07179799 10.8700177,8.09340175 10.9060036,8.1280822 C10.9420168,8.16276264 10.9667707,8.21697636 10.9800473,8.29026025 C10.9917973,8.35520775 10.9950415,8.43707321 10.9897799,8.53561143 L10.7339255,13.3465214 C10.7286639,13.4450596 10.7166141,13.5288593 10.6977488,13.5978115 C10.6764298,13.6755905 10.6455965,13.7369692 10.6053304,13.7815389 C10.5650643,13.8260813 10.5079503,13.8621511 10.4342337,13.8895577 C10.3690229,13.9138313 10.2887907,13.9321114 10.1939732,13.944398 L10.0495389,13.9630868 L10.0166881,14.5808781 L10.7342254,14.4878974 Z M11.1209377,7.21652875 L12.5431446,7.03225655 L13.4164845,6.91914329 L13.2731406,9.61389252 C13.3203312,9.59310605 13.3680944,9.5740359 13.4163209,9.55673654 C13.5623092,9.50445707 13.7119234,9.46838723 13.8644546,9.448636 C14.0387954,9.42607873 14.1967518,9.41880483 14.3384054,9.42684154 C14.4688544,9.38360677 14.602084,9.35309452 14.7377128,9.33549549 C15.2914051,9.26381895 15.6800257,9.34636548 15.9036018,9.58329855 C16.0169574,9.70330431 16.0969443,9.87466328 16.1438623,10.0977841 C16.164636,10.1972486 16.1789486,10.3070382 16.1867455,10.4272074 C16.3141139,10.1622412 16.4815574,9.92130344 16.6889126,9.7049389 L16.6886672,9.70502063 C16.9340257,9.44809114 17.2196503,9.24243313 17.5452955,9.08791038 C17.8683236,8.9346953 18.2300638,8.83215235 18.6305162,8.78033601 C18.7820659,8.76072099 18.9272637,8.74990549 19.0662183,8.74772605 C19.2065634,8.7136722 19.3524427,8.68681052 19.5037743,8.6671955 C19.9052899,8.6152157 20.2624773,8.62464181 20.5750095,8.69577349 C20.8890684,8.76725933 21.1573543,8.90110458 21.3794583,9.09741822 C21.4735124,9.18018269 21.5565799,9.27193739 21.6289061,9.37240986 C21.7057306,9.25371177 21.7917423,9.14095266 21.8866416,9.03424152 C22.1135164,8.77908283 22.3759682,8.57590394 22.6740242,8.42454139 C22.9704718,8.2741051 23.3009152,8.17534894 23.6655725,8.1280822 C23.8185944,8.10830372 23.963574,8.09928626 24.1004295,8.10105706 C24.240611,8.06343437 24.3868174,8.03472016 24.5388306,8.01502341 C24.8368867,7.97641997 25.1043547,7.97873563 25.3412074,8.02188867 C25.5803229,8.06536863 25.7876509,8.15025806 25.9633003,8.27628455 L25.9636002,8.27658422 C26.0800637,8.36106501 26.1759716,8.45892216 26.2514602,8.56988322 L26.3547016,6.62976729 C26.361817,6.49616723 26.3613535,6.39169002 26.3533112,6.31663533 C26.3466866,6.2533769 26.3367904,6.21553627 26.32395,6.20341309 C26.3102917,6.19052712 26.2827025,6.18202728 26.241346,6.17794082 C26.1911293,6.1730643 26.1249643,6.17592483 26.0431236,6.18657687 L25.7429683,6.2254255 L25.7930487,5.28414985 L26.6663069,5.17100934 L28.1332781,4.98104335 L29.0065908,4.86790284 L28.8597574,7.62735439 L29.3463033,7.56434115 L31.3156051,7.30926419 L32.188836,7.19615092 L32.1840379,7.27738979 L32.1610832,7.66658442 C32.3698288,7.44866703 32.6065179,7.27213187 32.8708236,7.13706068 C33.166944,6.98569813 33.4969239,6.88653332 33.8605998,6.83943004 C34.0159935,6.8192974 34.1639174,6.80962611 34.3043988,6.81033443 C34.4418813,6.773638 34.5850889,6.74560487 34.7338307,6.72631677 C35.1091746,6.67774236 35.4408721,6.6897838 35.7291138,6.76230488 C35.8094005,6.78251924 35.8861432,6.80739217 35.9595599,6.83697816 L35.9665118,6.70683797 L36.8397427,6.5937247 L38.9274163,6.32333713 L39.1422686,6.29546746 L39.8006745,6.21022386 L40.0154995,6.18240868 L41.3651621,6.00758984 L42.2384202,5.89444933 L42.1874947,6.85272466 L42.1115971,6.8647661 C42.0102913,6.88097573 41.9230528,6.90198015 41.8495543,6.9279428 C41.7800088,6.95240709 41.7231946,6.98114854 41.6790029,7.01403093 L41.6793027,7.01364953 C41.6381098,7.04470664 41.5940543,7.09744924 41.547627,7.17190458 L41.547627,7.17220425 C41.4975466,7.2523534 41.4462394,7.35505981 41.3943052,7.48032349 L41.3935964,7.48133148 L39.7981936,11.2163577 C39.6529959,11.5563786 39.5080163,11.8476889 39.3632821,12.0904792 C39.2153582,12.3386636 39.0675433,12.5372929 38.9199193,12.6865578 C38.7715592,12.8366126 38.6055605,12.956455 38.4228775,13.0459757 C38.241503,13.1348699 38.0445347,13.1930883 37.8325449,13.2204949 C37.6782144,13.2404913 37.5351704,13.2412814 37.4034129,13.2227288 C37.2636949,13.2763977 37.1155529,13.3133938 36.959314,13.3336354 C36.9389765,13.3362507 36.9188844,13.3385664 36.8989558,13.3405007 L36.8613069,14.0478945 C36.8646329,14.046723 36.8678771,14.0455516 36.8712031,14.0444073 C37.003424,13.9979851 37.1409066,13.9655659 37.2836507,13.9470951 C37.4356367,13.9273983 37.5784626,13.9260089 37.712292,13.9428451 C37.7229787,13.9389221 37.73372,13.9350536 37.7444612,13.9312668 C37.8766822,13.8848719 38.0141375,13.8525071 38.1568816,13.8339818 C38.4360996,13.7978302 38.6847023,13.8233842 38.9026896,13.9105076 C39.1203772,13.9974403 39.3067951,14.1458061 39.4618071,14.3551692 C39.6154288,14.5624345 39.7254857,14.8149506 39.7917871,15.1125813 C39.8575431,15.4077328 39.8803342,15.7466639 39.860024,16.1293202 C39.8387596,16.528949 39.7801189,16.8874134 39.6842928,17.2043594 C39.5872944,17.5250649 39.4520746,17.8035437 39.2787424,18.0395505 C39.1039927,18.2775461 38.8949745,18.4659592 38.6518515,18.6050624 C38.4106641,18.7430486 38.136953,18.8317793 37.8306911,18.8713907 C37.6841848,18.8904064 37.5449302,18.8936483 37.4131455,18.8812799 C37.2701832,18.9292278 37.1183336,18.9636903 36.9574602,18.9845312 C36.6616396,19.022835 36.3958619,18.997281 36.1601814,18.9079237 L36.159936,18.907624 C36.1378265,18.8992059 36.1159623,18.8901612 36.0943163,18.8805989 L36.070053,18.914571 L36.0448629,18.949769 L35.171632,19.0629096 L34.9295995,19.0942663 L34.0563413,19.2074069 L34.05735,19.1881732 L33.6629226,19.2392268 L32.2144078,19.4268771 L31.4708352,19.5231814 C31.3885311,19.5666613 31.3045367,19.6043385 31.2186885,19.6362947 C31.0671387,19.6926061 30.9100275,19.7312095 30.7473548,19.7522957 C30.573641,19.7747712 30.4162299,19.7819634 30.2751215,19.7740629 C30.1454359,19.8170797 30.0117428,19.847592 29.8741239,19.8654362 C29.5994042,19.9009612 29.3654685,19.8984003 29.172126,19.8581078 C29.049474,19.8324448 28.9432338,19.7916892 28.8533508,19.7357864 L28.8465625,19.8631205 L27.9733044,19.9761793 L25.7729566,20.2611964 L24.8997257,20.3743369 L24.9136294,20.1120133 C24.7452316,20.267762 24.5525162,20.3950417 24.3353466,20.4937434 C24.0936958,20.6036147 23.8227655,20.6779066 23.5226102,20.7167552 C23.3662896,20.7370785 23.2176024,20.7464774 23.0766575,20.7452515 C22.9414923,20.7823293 22.7990753,20.8104986 22.6493793,20.8298957 C22.2786699,20.8779253 21.9512526,20.8655569 21.6677,20.7925999 C21.3825662,20.7192343 21.1423057,20.5845445 20.9475455,20.3883944 C20.7521856,20.1924076 20.611159,19.9455853 20.5244657,19.647655 C20.4384539,19.3522856 20.405903,19.0068433 20.4270038,18.6113828 C20.4474776,18.2260294 20.5190405,17.873286 20.641529,17.5535612 C20.7650261,17.2313028 20.9400485,16.9427169 21.1664053,16.6881031 C21.3933619,16.4329716 21.6558137,16.2297927 21.9538698,16.0784302 C22.2503174,15.9279939 22.5807607,15.8292105 22.945418,15.7819437 C23.0984399,15.7621925 23.2433377,15.7531478 23.3801933,15.7548641 C23.5203748,15.7172414 23.6665812,15.6885817 23.8186762,15.6689122 C24.1167322,15.6302815 24.3842002,15.6325972 24.621053,15.6757774 C24.8601412,15.7192574 25.0674964,15.8041196 25.2431458,15.9301461 L25.2433639,15.930473 C25.4198039,16.0584337 25.5492442,16.2167433 25.6315483,16.4052382 C25.7139343,16.5940599 25.7486934,16.8118139 25.7355531,17.0587996 C25.7270473,17.2179537 25.6966229,17.3648212 25.6443615,17.4992658 C25.5914458,17.6355629 25.5160935,17.7585926 25.4186317,17.8680281 L25.4183318,17.8684095 C25.3212789,17.9766735 25.2089865,18.0630885 25.0819453,18.1274912 C24.9562127,18.1912127 24.817258,18.2329764 24.6655719,18.2525914 C24.506825,18.2731327 24.3695878,18.261173 24.2529062,18.2169302 C24.2383755,18.2251031 24.2235995,18.2330581 24.2086871,18.2406317 C24.0829545,18.3043532 23.9440271,18.3460352 23.7923138,18.3657319 C23.5386949,18.3985598 23.3397909,18.3485143 23.1924122,18.2160039 C23.1564808,18.1836392 23.1252658,18.1477328 23.0988216,18.1081213 C23.0962862,18.1427201 23.0940235,18.1778364 23.0921151,18.2136065 C23.0778025,18.4833403 23.0823553,18.7147975 23.1056916,18.9079237 C23.1286463,19.0970451 23.1695394,19.2488708 23.2283436,19.3632373 C23.2650656,19.4348321 23.3092574,19.4927509 23.3609463,19.5371571 C23.3726144,19.524707 23.3839009,19.511821 23.3947239,19.4983085 L23.3948057,19.4980088 C23.4532283,19.4252425 23.5007461,19.3378467 23.5373863,19.2355217 C23.5752533,19.1297913 23.6015339,19.0077696 23.6162009,18.8693202 L23.624325,18.7923313 L24.4975559,18.6791908 L24.7480942,18.6467443 L25.6213523,18.533631 L25.612683,18.6191743 C25.5851756,18.8898615 25.5253626,19.1372014 25.4333259,19.3613847 C25.5025715,19.3430774 25.550471,19.3201387 25.576588,19.2925687 C25.5937631,19.2745066 25.6087572,19.2417604 25.6214886,19.1945754 C25.6369462,19.1377463 25.6470877,19.0643807 25.651804,18.9748054 L25.8994798,14.3182548 C25.90605,14.1943805 25.9055865,14.0966051 25.8982258,14.0245471 C25.8917374,13.9604714 25.8810779,13.9193071 25.8665472,13.9008363 C25.8541157,13.8851715 25.8278351,13.8741926 25.7878144,13.8682536 C25.7383338,13.8609252 25.6717326,13.8625325 25.5879563,13.8734298 L25.243064,13.9180539 L25.2931444,12.9767783 L26.1663753,12.8636378 L27.6967308,12.6654989 L28.5699617,12.5523584 L28.4267814,15.2440019 L28.8150203,15.1937384 L30.2913424,15.0025192 L30.9894146,14.9120994 L31.1646006,14.889406 L31.8626455,14.7990407 L33.2169426,14.6235952 L34.0902008,14.5104547 L33.9096715,17.9051604 C33.9050369,17.9911123 33.9078176,18.0603915 33.9177956,18.1125892 C33.9262195,18.1571589 33.9390327,18.1875077 33.956126,18.2033359 C33.9732738,18.2193821 34.0040254,18.2300614 34.0480809,18.2352376 L34.0483808,18.2351558 C34.066401,18.237308 34.086166,18.2383977 34.1078939,18.2384795 L34.3799964,13.1228012 C34.3845492,13.0368493 34.3817685,12.9676519 34.3718723,12.9154541 C34.3633666,12.87083 34.3505534,12.8404812 34.3335419,12.8246529 C34.3163123,12.8085795 34.2856425,12.7979275 34.2415052,12.7927513 L34.2412053,12.792833 C34.1892711,12.7866488 34.1217975,12.7889645 34.0390299,12.7996983 L33.6847868,12.8455756 L33.7348672,11.9042727 L34.6080981,11.7911595 L35.7891448,11.6381623 C35.8285658,11.5669762 35.8755655,11.5002579 35.9300351,11.4383888 C36.0199181,11.3364452 36.1223144,11.2555333 36.2372785,11.1955985 C36.3509613,11.1362903 36.4757669,11.0979048 36.6115592,11.0803058 C36.7305581,11.0649407 36.8379706,11.0674743 36.9334151,11.0878794 C36.9718273,11.0960523 37.0082222,11.1072492 37.0425996,11.1213066 C37.0647091,11.1075489 37.0873639,11.0944994 37.1105366,11.082458 C37.2242194,11.0231498 37.3490251,10.9847643 37.4847901,10.967247 C37.5796076,10.9549604 37.6669279,10.9541158 37.746833,10.9646044 L37.0014066,8.95970445 L36.9888934,9.19456704 L36.1156625,9.30759858 L33.9814524,9.58406135 C33.9710929,9.78416177 33.9795986,9.95614734 34.0070515,10.0997729 C34.0339319,10.240783 34.0791324,10.3548498 34.1428166,10.4415645 C34.1944509,10.5120151 34.2580533,10.5648122 34.3338418,10.5997379 C34.3858578,10.5675365 34.4337845,10.5308401 34.4773492,10.4896213 C34.5523199,10.4187893 34.6132233,10.3364062 34.6601141,10.2430442 C34.7081225,10.1475027 34.7416549,10.0400015 34.7606565,9.92130344 L34.7723247,9.84856441 L34.8414885,9.83930177 L35.9455745,9.69148081 L36.0462533,9.67804998 L36.0451083,9.68200022 L36.8188054,9.57844928 L36.9195114,9.56493671 L36.8892233,9.66941392 C36.8023391,9.96881537 36.6872115,10.2369962 36.5436222,10.4740928 C36.3991878,10.7124697 36.2260193,10.919054 36.0239256,11.0939546 C35.8213686,11.2687189 35.592858,11.4094294 35.3385576,11.5160044 C35.0858383,11.6219527 34.8077926,11.6944738 34.5043387,11.7337855 C34.3555696,11.7529919 34.2131527,11.7618187 34.0771423,11.7602658 C33.935107,11.7978613 33.7864197,11.8267389 33.6310805,11.8468171 C33.2702672,11.893539 32.947021,11.8791001 32.6606876,11.8037458 C32.5181889,11.7662048 32.3851228,11.7136257 32.2614076,11.6460356 L32.2499575,11.8616646 L31.3767266,11.9747778 L29.3801627,12.2334236 L29.0664855,12.274043 L28.5069046,12.3464824 L28.1932546,12.3871018 L26.2692351,12.636376 L25.3960042,12.7494348 L25.4015656,12.644331 C25.2940713,12.7187046 25.1787801,12.78387 25.0555011,12.8398546 C24.8138502,12.9497532 24.5429199,13.024045 24.2427647,13.0628937 C24.0864441,13.0831898 23.9377568,13.0926159 23.796812,13.0913899 C23.6616467,13.1284405 23.5192297,13.1566371 23.3695338,13.1760069 C22.9989062,13.2240637 22.6714071,13.2116954 22.3878544,13.1387112 C22.1027206,13.0653455 21.8624601,12.930683 21.6677,12.7344511 C21.5871134,12.6535936 21.515714,12.5641001 21.453502,12.4658616 C21.3724247,12.5798466 21.28216,12.6882741 21.182708,12.7911984 L21.1830079,12.7911167 C20.9372677,13.0461119 20.6507981,13.2504623 20.3242259,13.4043584 C19.9998074,13.5571921 19.6367586,13.6595171 19.235543,13.7114969 C19.0839114,13.7311119 18.9386319,13.7420636 18.7998408,13.7443248 C18.659414,13.7782152 18.5135892,13.8050224 18.362203,13.8246374 C17.9602785,13.8766717 17.6031729,13.867627 17.291295,13.7972036 C17.0664103,13.7465588 16.8654071,13.6640667 16.6883673,13.5496185 L16.6708106,13.879614 L15.7975797,13.9927545 L13.7824776,14.2537704 L13.6231854,14.2743934 L12.9092194,14.3668292 L12.7499545,14.3875067 L10.7256378,14.6496941 L9.85240695,14.7628346 L9.90240556,13.8215317 L10.2025608,13.7826286 C10.2853829,13.7718676 10.3535653,13.7565842 10.4067263,13.736833 C10.4513816,13.7202964 10.4830056,13.7017711 10.5013802,13.6814478 C10.5197003,13.6611517 10.5354032,13.6273158 10.5482982,13.5802125 C10.563674,13.5239828 10.5736519,13.4527149 10.5782864,13.3666813 L10.8341408,8.55574406 C10.8386936,8.46973766 10.8361582,8.4000771 10.826562,8.34708931 C10.8185469,8.30268309 10.8062517,8.27249776 10.7898672,8.25666953 C10.7734828,8.24092303 10.7433582,8.23032547 10.6999025,8.22514929 C10.64805,8.21904684 10.5806037,8.22130801 10.4978361,8.23204179 L10.1976809,8.27086318 L10.2476795,7.32958753 L11.1209377,7.21652875 Z M13.2640896,9.78331724 L13.2429888,10.1800855 C13.3177959,10.0970758 13.3936116,10.0202503 13.470736,9.94966348 C13.5989222,9.83235478 13.7310886,9.73166436 13.8673171,9.64756497 C13.8942248,9.63102842 13.9212687,9.61503673 13.9485308,9.59975337 C13.9182426,9.6027501 13.8873275,9.60631895 13.8558943,9.61040541 C13.7133683,9.62887622 13.5752042,9.6620038 13.4420563,9.70970644 C13.3820253,9.73117398 13.322594,9.75582897 13.2640896,9.78331724 Z M16.1908348,10.8100817 C16.1897716,10.8392863 16.1885176,10.8690085 16.1869091,10.8991393 L16.1060771,12.4185131 C16.1202806,12.4773582 16.1367469,12.5342145 16.1555305,12.5891093 C16.2048203,12.7336883 16.2698948,12.8654086 16.3508904,12.984025 C16.3754535,12.9824176 16.4018159,12.9796388 16.4299503,12.9760155 L16.720891,12.9383111 L16.6991904,13.3464396 C16.884327,13.4849162 17.1008695,13.582065 17.3486271,13.6379678 C17.590496,13.6924812 17.862844,13.7079281 18.165371,13.6843083 C18.1650711,13.6842266 18.1647712,13.6842266 18.1645259,13.6841449 C17.8506306,13.6133401 17.5832443,13.4805846 17.3626943,13.2856876 C17.1414354,13.0911447 16.9809437,12.8470467 16.8809465,12.5535843 C16.781331,12.2614567 16.7419918,11.9212724 16.7625474,11.5333854 C16.7832666,11.1448719 16.8600638,10.7884779 16.99283,10.4649663 C17.126305,10.1398474 17.316158,9.84856441 17.5621435,9.59188012 L17.5619254,9.59188012 C17.8072839,9.33495063 18.0929084,9.12929262 18.4185537,8.9748516 C18.4199441,8.97414328 18.4214162,8.9734622 18.4228066,8.97275388 C18.1177714,9.0275942 17.8392623,9.11471757 17.5870337,9.23439642 C17.2835525,9.37843059 17.0174204,9.57003117 16.7887462,9.80933438 L16.7884464,9.80941611 C16.5606991,10.047112 16.3848861,10.3168457 16.2612527,10.6180997 C16.2355173,10.6806498 16.2120175,10.744671 16.1908348,10.8100817 Z M13.7910379,14.0919738 L13.832558,13.3124675 L14.0107428,13.2893926 C14.1673906,13.2690693 14.2678512,13.2350154 14.3119885,13.1872038 C14.3309084,13.1667443 14.3472111,13.1326087 14.3605967,13.0852057 C14.3761906,13.0296844 14.3864684,12.9587979 14.3910212,12.8728459 L14.4842302,11.119672 C14.4911002,10.9906488 14.48453,10.8799874 14.4646833,10.7878513 C14.445518,10.6989571 14.414303,10.6278527 14.371338,10.5747015 C14.3295998,10.523212 14.2754301,10.4876053 14.2088834,10.4676906 C14.1396378,10.4469859 14.0564067,10.4430357 13.9590539,10.455622 C13.8412001,10.4708508 13.7389674,10.5049864 13.6524921,10.5576473 C13.6438228,10.5629052 13.6351807,10.5684628 13.6267567,10.5741566 C13.681608,10.6432178 13.720729,10.7316216 13.7439018,10.8391228 C13.7666383,10.9446897 13.7743535,11.0693268 13.7666929,11.2125982 L13.6734294,12.9657448 C13.6682496,13.0638199 13.6557363,13.1478376 13.6361076,13.2173347 C13.6223403,13.2662905 13.6045654,13.3088442 13.5831647,13.3447506 L13.6732658,13.3330905 L13.6318547,14.1125968 L13.7910379,14.0919738 Z M13.498925,10.6890134 C13.4782331,10.7133415 13.458986,10.7393586 13.4410476,10.76731 L13.4410476,10.7670104 C13.3817799,10.8593644 13.3343985,10.9775176 13.2989305,11.1211432 C13.2623176,11.2692638 13.2386541,11.4441916 13.2279129,11.6455724 L13.1541145,13.0330625 C13.1495617,13.1190144 13.1523424,13.1882118 13.1622386,13.2404096 C13.1707443,13.2849793 13.1835575,13.315328 13.200569,13.3311563 C13.2221333,13.3512344 13.2608454,13.3628945 13.3169507,13.3660547 C13.3740647,13.3482377 13.414767,13.326307 13.4387303,13.3003444 C13.4576775,13.2798031 13.4739802,13.2457492 13.4873386,13.1983463 C13.5029597,13.1427976 13.5132375,13.0719111 13.5177903,12.9859592 L13.6109993,11.2327308 C13.6178693,11.1037621 13.6112992,10.9931007 13.5914251,10.9009101 C13.5724235,10.8127242 13.5415083,10.741974 13.498925,10.6890134 Z M23.7618075,18.935194 C23.7446324,19.0565892 23.7182155,19.1671688 23.6825022,19.266933 C23.638065,19.3909707 23.5794244,19.498145 23.5064711,19.5888917 L23.5065529,19.588592 C23.4999827,19.596765 23.493249,19.6048017 23.4864608,19.6126749 C23.5705369,19.6455028 23.6696072,19.654602 23.783808,19.6397818 C23.8899119,19.626024 23.9835025,19.5976095 24.0643345,19.5545382 C24.1433127,19.5124476 24.211168,19.4559182 24.2680366,19.385168 L24.2680366,19.3848683 C24.3264592,19.3121837 24.3740042,19.2247062 24.4106172,19.1224629 C24.4404419,19.0392081 24.4630148,18.9457643 24.4784724,18.8423496 L23.7618075,18.935194 Z M23.7918503,16.6846432 C23.8216205,16.7065739 23.8506,16.7311199 23.878789,16.7583085 L24.0043853,16.8791588 L23.7978752,16.9058842 C23.6977417,16.9188519 23.6087038,16.9443515 23.5306525,16.98241 C23.4636697,17.0150745 23.4041566,17.0571651 23.3523042,17.1087634 C23.285076,17.2298317 23.2302792,17.3725582 23.1880776,17.5366433 C23.1725382,17.5972864 23.1586345,17.6607627 23.1465847,17.7270996 C23.150674,17.7867075 23.1611154,17.8410574 23.1778815,17.8901767 C23.204244,17.9671656 23.2465819,18.0320587 23.3050863,18.0846378 C23.4240034,18.1915941 23.5883936,18.2315053 23.8009831,18.2039353 C23.9075505,18.190123 24.0056121,18.1646507 24.0950316,18.1275729 C24.0850537,18.1196997 24.0752394,18.111445 24.0656431,18.1028634 C23.9910814,18.035682 23.9369117,17.9528903 23.9032976,17.8545972 C23.8701469,17.7577481 23.8570066,17.6465418 23.8636586,17.5211419 C23.8700651,17.4001827 23.8928562,17.289603 23.9321136,17.1893757 C23.9722161,17.0866693 24.0293301,16.9952415 24.1033738,16.9149289 C24.1770904,16.8350795 24.2627205,16.7712762 24.3603187,16.723628 C24.4042106,16.7022422 24.4504198,16.6842345 24.4988644,16.6694143 C24.4623333,16.6486551 24.424848,16.6325817 24.3863539,16.6213847 L24.3852089,16.6209216 C24.342462,16.607409 24.2960893,16.5992361 24.2465541,16.5961304 C24.1963374,16.5929702 24.1417043,16.5952859 24.0832817,16.6028595 C23.9778593,16.6165355 23.8806428,16.6437786 23.7918503,16.6846432 Z M22.8433489,15.9570895 C22.5334611,16.0059091 22.2523893,16.0943401 21.9999972,16.2224371 C21.7241324,16.3624665 21.4812275,16.55058 21.2711189,16.7868865 C21.0619916,17.0220215 20.899946,17.2895213 20.7852818,17.5888682 C20.669827,17.8903402 20.6021898,18.2245583 20.5826429,18.5912229 C20.5625508,18.9688664 20.5931661,19.2971456 20.6743797,19.5761419 C20.7549118,19.8526864 20.885279,20.0813649 21.0653994,20.2619865 C21.244293,20.4423084 21.4658517,20.5662372 21.7293122,20.6340452 C21.9670919,20.6952059 22.2394943,20.7107345 22.5461379,20.6808488 C22.5444204,20.6803857 22.5427302,20.6799226 22.5409581,20.6795412 C22.255797,20.6060938 22.0155366,20.4714858 21.8208037,20.2752539 C21.6254438,20.0793489 21.4844172,19.8324448 21.3976966,19.5345962 C21.3116848,19.239145 21.2791612,18.8937845 21.300262,18.4982422 C21.3207358,18.1128889 21.3922987,17.7602272 21.5148416,17.4404207 C21.638257,17.1181623 21.8133066,16.8295764 22.039718,16.5749625 C22.2666201,16.3198311 22.5290446,16.1166522 22.8271279,15.9653714 C22.8325258,15.9625926 22.8379237,15.9598138 22.8433489,15.9570895 Z M26.157815,13.0254344 L25.440196,13.1184151 L25.4073724,13.7361247 L25.5966256,13.7116331 C25.6929697,13.6991286 25.7727385,13.6977392 25.8356321,13.7070835 C25.9086671,13.717899 25.9612829,13.7439162 25.9935066,13.7846173 C26.0235767,13.8227849 26.0435052,13.8875689 26.0528561,13.9794598 C26.0612256,14.0619246 26.0620707,14.1680364 26.0551734,14.2980949 L25.8074976,18.9546456 C25.8020997,19.0560443 25.7899681,19.1418328 25.7709665,19.2116568 C25.749484,19.2910431 25.7180236,19.3527487 25.6767488,19.3962831 C25.6133918,19.4631649 25.5043436,19.5109765 25.3508037,19.5394728 C25.2749879,19.6854957 25.1837963,19.8199403 25.077229,19.9428883 L25.0640069,20.1924076 L25.7815442,20.0995087 L25.8229552,19.3199208 L26.1493911,19.2776668 C26.3065841,19.2572889 26.4071811,19.224461 26.4498462,19.1794555 C26.466994,19.161366 26.4819881,19.1286471 26.4947468,19.0815166 C26.5102044,19.0246058 26.5203186,18.9512402 26.5250349,18.8616649 L26.7727107,14.2051143 C26.7793626,14.08124 26.7788174,13.9834646 26.7715657,13.9114339 C26.7649955,13.8473309 26.7543088,13.8062483 26.7398054,13.7877775 C26.7273466,13.772031 26.701066,13.7610793 26.6610453,13.7551948 C26.611592,13.7477847 26.5449635,13.7494738 26.461269,13.7602893 L26.1163222,13.8049407 L26.157815,13.0254344 Z M28.4461102,18.9748054 C28.4183574,18.7818972 28.4114056,18.5560248 28.4251457,18.2969976 L28.5188999,16.5342069 C28.5275419,16.3720288 28.5127932,16.2718015 28.4746808,16.2351051 C28.4582963,16.2193586 28.4282535,16.2087883 28.3847433,16.2036121 C28.381799,16.2032852 28.3788002,16.2029855 28.3757741,16.2026859 L28.2462521,18.6387893 C28.2411541,18.7334862 28.2430897,18.8085409 28.2518953,18.8637626 C28.2589289,18.9080871 28.2691249,18.9360385 28.282347,18.9471537 C28.2981045,18.9605301 28.3272476,18.9691661 28.3699673,18.9731164 C28.3922404,18.9751868 28.4175941,18.9757317 28.4461102,18.9748054 Z M31.1066414,18.4977791 C31.1254795,18.4760119 31.143418,18.4527735 31.1603477,18.4279823 C31.2213056,18.3385433 31.2699139,18.2283451 31.305709,18.0978507 C31.3426491,17.9633244 31.3659036,17.8077119 31.3752545,17.6313402 L31.453851,16.1540297 C31.4584037,16.0679961 31.4559229,15.9983355 31.4462721,15.9454295 C31.4383116,15.9010505 31.4260164,15.8707562 31.4095501,15.8550097 C31.3931929,15.8391814 31.3631229,15.8286656 31.3196126,15.8235167 C31.267842,15.8173325 31.2003684,15.8195664 31.117519,15.8303002 L31.1145202,15.8306816 L31.0010828,17.9633244 C30.9941855,18.0928925 31.0004557,18.2034721 31.0198391,18.2950089 C31.0376957,18.379081 31.0665935,18.4467528 31.1066414,18.4977791 Z M31.8540034,14.9607556 L31.1559312,15.0511754 L31.1230805,15.6689667 L31.1261065,15.6685853 C31.220924,15.6563259 31.3002838,15.6539285 31.3638862,15.6614748 C31.4356945,15.6700564 31.4897006,15.6916874 31.5257138,15.7263678 C31.5618087,15.761021 31.5864536,15.8152348 31.5997575,15.8885187 C31.6114802,15.9535479 31.6147244,16.0354133 31.6095718,16.1338698 L31.5309753,17.6111803 C31.5209156,17.8000566 31.4955619,17.9682554 31.4551596,18.1154497 C31.4135031,18.2673571 31.3556258,18.3975518 31.2818274,18.5057341 C31.2622805,18.5344755 31.2414796,18.5615824 31.2196972,18.5872999 C31.2362998,18.5950914 31.2539383,18.6018204 31.2724765,18.6071328 C31.3416404,18.6272927 31.4247896,18.6309978 31.5221697,18.6183297 C31.6361523,18.6035912 31.7355225,18.5705999 31.8203621,18.5196553 C31.9034568,18.4698277 31.9745562,18.4015021 32.0335786,18.3149236 C32.0945638,18.22543 32.1431721,18.1152045 32.1789399,17.9847102 C32.21588,17.8501839 32.2391345,17.6945714 32.2484854,17.5181997 L32.3270819,16.0409709 C32.3316346,15.9549373 32.3291811,15.8852767 32.319503,15.8323162 C32.3115425,15.78791 32.2992746,15.7576429 32.2828083,15.7418692 C32.2664238,15.7260409 32.2363538,15.7155523 32.1928435,15.7103762 C32.1410729,15.704192 32.0736265,15.7065076 31.9907772,15.7172414 L31.8125651,15.7403435 L31.8540034,14.9607556 Z M28.8064328,15.355535 L28.4181938,15.4057985 L28.3845797,16.0380287 C28.4001191,16.038737 28.4149497,16.0399629 28.4289351,16.041652 C28.5007433,16.0502336 28.5548313,16.0718646 28.5908444,16.106545 C28.657691,16.1708659 28.6855801,16.3073265 28.6746207,16.514047 L28.5808665,18.2768377 C28.5667175,18.5425667 28.5750052,18.7700737 28.605675,18.9595221 L28.8966157,18.9218176 L28.8643374,19.5285755 C28.9564559,19.6103592 29.0775267,19.6670521 29.2276861,19.6984089 C29.405053,19.7353777 29.6232857,19.7372303 29.8827115,19.7036396 C29.886092,19.7031764 29.8894997,19.7027133 29.8929075,19.7022502 C29.7654574,19.6563728 29.6607438,19.5895183 29.5785214,19.5017138 L29.5782216,19.5014687 C29.4664744,19.3811632 29.3873327,19.2091777 29.3409872,18.9855392 C29.2958412,18.7676763 29.2815559,18.5005034 29.2984038,18.1838571 L29.3921308,16.4210664 C29.4008001,16.2588883 29.3860241,16.1587428 29.347939,16.1220463 C29.3315545,16.1062181 29.3014844,16.0957295 29.2579742,16.0905533 C29.2061218,16.0843692 29.13873,16.0866031 29.0559078,16.0973369 L28.7649399,16.135014 L28.8064328,15.355535 Z M31.7862845,19.3216916 L32.2230771,19.2650805 L32.2439326,18.8728618 C32.1821023,18.949769 32.1179819,19.021827 32.0515988,19.0888722 C31.9674408,19.1738161 31.8789482,19.2514317 31.7862845,19.3216916 Z M36.8909953,17.7285435 C36.9055805,17.7040792 36.9195932,17.6781166 36.9328698,17.6507918 L36.93257,17.6514728 C36.9942367,17.5233759 37.0443171,17.3625055 37.0826476,17.1687527 C37.1216596,16.9715945 37.1481583,16.7416357 37.162171,16.47874 C37.1762927,16.2127113 37.1742208,15.9841964 37.1561188,15.793631 C37.1382894,15.6064166 37.105057,15.4566886 37.0567486,15.3449375 C37.0440718,15.3155967 37.0300863,15.2884898 37.0150104,15.2638621 C36.9960905,15.2935843 36.9783157,15.3254859 36.9615495,15.3595398 L36.9616313,15.3591584 C36.8987923,15.4873371 36.8479485,15.6483709 36.8091546,15.8423416 C36.7699791,16.0384918 36.7431532,16.2694042 36.7290042,16.5348062 C36.715564,16.7880307 36.7191898,17.0074192 36.7396091,17.1932442 C36.759783,17.3768626 36.796396,17.5280889 36.8490935,17.647005 C36.8621521,17.6763458 36.876083,17.7036161 36.8909953,17.7285435 Z M37.1275482,15.124541 C37.1551374,15.1635531 37.1795369,15.2078776 37.2009649,15.2572148 C37.2551346,15.3824785 37.2919111,15.5468087 37.3112399,15.7496879 C37.3301598,15.94829 37.3323953,16.1847599 37.3178646,16.4586073 C37.3034157,16.7298122 37.2759083,16.9680529 37.2352606,17.1734658 C37.1939313,17.3822022 37.1385893,17.5584377 37.0693437,17.702145 L37.0690438,17.702826 C37.0435265,17.7551872 37.0160191,17.8035437 36.9866579,17.8479499 C37.0038875,17.8634785 37.0219622,17.8770455 37.0408276,17.8887873 C37.1161799,17.9355909 37.2059811,17.9522637 37.3099858,17.9387511 C37.5244292,17.9109632 37.6894191,17.7773631 37.806128,17.5376513 L37.8058008,17.5383596 C37.8674676,17.4102354 37.917548,17.249365 37.9558785,17.0556122 C37.9949177,16.858454 38.0214164,16.6284952 38.0354019,16.3656267 C38.0495509,16.0995708 38.0474517,15.8710831 38.029377,15.6804905 C38.0115203,15.4933033 37.9783697,15.3436298 37.9300068,15.231797 C37.8842338,15.1259304 37.8228942,15.0506305 37.7462333,15.0061698 C37.6705811,14.9623084 37.5779173,14.9473247 37.4683239,14.9615184 C37.3361847,14.9785998 37.2225019,15.0329497 37.1275482,15.124541 Z M39.3663627,7.95626009 L39.489151,7.65887463 L39.4918772,7.65293564 L39.513496,7.60852942 C39.5538438,7.51091747 39.5845137,7.43074108 39.6053964,7.36819097 C39.624398,7.31119845 39.6345941,7.27175047 39.6357663,7.25011946 C39.636148,7.2428728 39.6350575,7.23745143 39.6325767,7.23404605 C39.6280239,7.22788911 39.6187548,7.22246774 39.6048511,7.21791814 L39.6039242,7.21775468 C39.5846772,7.21127083 39.5577151,7.20794718 39.5233103,7.20772923 C39.4944126,7.20748404 39.4597898,7.20966349 39.4196055,7.21391341 C39.3752501,7.22069694 39.3362926,7.22848846 39.3027603,7.23745143 C39.2620308,7.24834866 39.228662,7.26085324 39.2026268,7.27512861 C39.1813624,7.28678865 39.1663682,7.29768588 39.1581078,7.30795652 C39.1548637,7.3119885 39.1530098,7.31675604 39.1527645,7.32225914 C39.1515377,7.34549749 39.1571809,7.3800962 39.1693943,7.42602803 C39.1825892,7.47585562 39.2037718,7.538324 39.2323697,7.61337869 C39.2327514,7.61400528 39.2332966,7.61476809 39.2341417,7.61640267 L39.2341417,7.61700202 C39.2366226,7.62171507 39.2391579,7.62642812 39.2401666,7.62874379 L39.2418024,7.6326123 L39.3663627,7.95626009 Z M36.9075161,13.1786495 C36.9274719,13.176797 36.9475641,13.1745631 36.9679561,13.1718387 C37.019645,13.1652187 37.0701888,13.1564736 37.1198057,13.1459033 C37.0468525,13.1150914 36.9787791,13.0765425 36.9153949,13.029984 L36.9075161,13.1786495 Z M39.7649612,8.99185128 L39.7813457,8.95354751 L40.3624091,7.54573412 L40.3651081,7.53979513 L40.3867542,7.49538891 C40.4270747,7.39777696 40.4577718,7.3176823 40.4786273,7.25513219 C40.4976289,7.19805794 40.5078522,7.15860996 40.5089972,7.13697895 C40.5093789,7.12973229 40.5083157,7.12431092 40.5058348,7.12093278 C40.5012821,7.1147486 40.492013,7.10932723 40.478082,7.10485936 L40.4771551,7.10464142 C40.4579081,7.09813032 40.430946,7.09483391 40.3965685,7.09458872 C40.3590014,7.09428905 40.3118653,7.09791238 40.2552965,7.10524076 L39.9644104,7.14294519 L40.0068574,6.3441236 L39.7920052,6.37199327 L39.7527478,7.11033522 C39.7559375,7.11382233 39.7590181,7.11744566 39.7617988,7.12131418 C39.7839083,7.15128157 39.7937227,7.18756935 39.7914872,7.22995958 C39.7894698,7.26763676 39.7761659,7.32294022 39.7519027,7.39567924 C39.7295751,7.46280619 39.6970514,7.54758665 39.6548498,7.64991166 L39.652069,7.65555098 L39.6296596,7.70151005 L39.4427237,8.15450798 L39.7649612,8.99185128 Z M36.8311824,6.75549411 L36.1135633,6.84839301 L36.1104827,6.90685666 C36.2412315,6.97580889 36.3596306,7.06176081 36.4654892,7.16463068 L36.4658163,7.16463068 C36.6665741,7.36039945 36.8115537,7.60727624 36.9010278,7.90520656 C36.9536708,8.08051578 36.9868214,8.27342403 37.0008069,8.48363163 L37.9439922,11.0204527 C37.9857032,11.0400678 38.0241972,11.0641506 38.0593652,11.0928921 C38.1311462,11.1514102 38.1835439,11.2238496 38.2163947,11.3101284 C38.2490001,11.3957534 38.2623585,11.4942099 38.2564154,11.6054979 C38.2506358,11.7153147 38.2289897,11.8167135 38.1917498,11.9096124 C38.1538828,12.0042003 38.0999312,12.0893895 38.0301403,12.164989 C38.0300585,12.1650707 38.030004,12.1652342 38.0298404,12.1653159 L38.0301403,12.164989 C38.0300585,12.1650707 38.030004,12.1652342 38.0298404,12.1653159 C37.9602131,12.2415148 37.8792993,12.301831 37.7874262,12.3467821 C37.7140095,12.382525 37.6338591,12.4084059 37.5472475,12.4243976 C37.5558078,12.4288655 37.5643953,12.432734 37.5729556,12.4361394 L37.5741279,12.4366025 C37.6017989,12.4483988 37.6298515,12.4560541 37.6580405,12.4596774 C37.6867202,12.4634642 37.7165449,12.4632462 37.7472965,12.4592143 C37.8470756,12.4463283 37.9432834,12.4118113 38.0357835,12.3558813 C38.1304647,12.2987525 38.2221742,12.2189031 38.3107486,12.1166598 C38.4017766,12.0114742 38.4868615,11.8861288 38.5656216,11.7403239 C38.6406468,11.6013297 38.7101923,11.4433198 38.7741763,11.2659401 L37.5393415,7.94460005 L37.539287,7.94522664 C37.4993208,7.84113084 37.4612903,7.75678626 37.4252771,7.69216568 C37.3914449,7.63138636 37.3597664,7.58866922 37.3304596,7.56404147 C37.303034,7.54093934 37.2721189,7.52502938 37.2378232,7.51647505 C37.2019463,7.50751208 37.1616257,7.50595923 37.1165616,7.511762 L36.7886808,7.55423396 L36.8311824,6.75549411 Z M36.8782367,11.247878 C36.8779368,11.2477962 36.8775551,11.2477145 36.877228,11.2476328 C36.7976228,11.2306603 36.7060495,11.2287261 36.6029717,11.2420752 C36.4855813,11.2573041 36.3796409,11.2894237 36.2852052,11.3386791 C36.1919962,11.3872536 36.1087106,11.4532091 36.0353757,11.5364639 C36.0134298,11.5614186 35.9928469,11.587354 35.973927,11.6142157 L36.1245499,11.5947641 L36.662403,11.5250218 C36.7018239,11.4538356 36.7488782,11.3871173 36.803266,11.3252483 C36.8273929,11.2979235 36.8523377,11.2721243 36.8782367,11.247878 Z M36.1961673,18.7378724 C36.2090895,18.7433482 36.2220663,18.7486061 36.2351248,18.7535644 L36.2348249,18.7533192 C36.4499498,18.834885 36.6936998,18.8580416 36.9661023,18.8227346 C37.0005615,18.8182667 37.0345028,18.8131722 37.0680351,18.8073695 C37.0564487,18.8033647 37.0449169,18.7991965 37.0334123,18.7947832 L37.0331669,18.7945652 C36.9144679,18.7490693 36.8013577,18.6869006 36.6935362,18.6079229 C36.6080697,18.545291 36.5256292,18.4718437 36.4462421,18.3877443 L36.1961673,18.7378724 Z M37.3898909,14.0976131 C37.3522693,14.1000105 37.3140206,14.1037973 37.2750632,14.10881 C37.1430058,14.1259459 37.0164826,14.1556953 36.8956299,14.1980856 C36.881181,14.20318 36.8668139,14.2084379 36.8525013,14.2138321 L36.8341812,14.5574218 C36.892004,14.4938637 36.9511899,14.434392 37.0116299,14.379252 C37.1246857,14.275919 37.2420761,14.1873518 37.3636921,14.1134413 L37.3633922,14.113741 C37.3721979,14.1083469 37.3810035,14.1029527 37.3898909,14.0976131 Z M34.5995378,11.9529289 L33.8820005,12.0458278 L33.8490952,12.6636191 L34.0476175,12.6379289 C34.1423531,12.6256422 34.2216312,12.6233266 34.2854789,12.6308184 L34.2851517,12.6309002 C34.3567964,12.6393183 34.4111297,12.6607041 34.4479062,12.6949759 C34.4850917,12.7294929 34.5107453,12.7837883 34.5247307,12.8573174 C34.5371622,12.922728 34.5408698,13.0045662 34.5356355,13.1026413 L34.2631513,18.226656 L34.5862339,18.1847834 L34.5437323,18.983605 L34.9381598,18.9324969 L35.2532273,13.0096879 C35.2577801,12.923736 35.2549994,12.8545386 35.2451032,12.8023409 C35.2366247,12.7576894 35.2237843,12.7274224 35.2067728,12.7115124 C35.1895432,12.6955207 35.1588734,12.684787 35.1147361,12.6796108 L35.1144362,12.6796925 C35.062502,12.6735083 34.9950557,12.675824 34.9122881,12.6865578 L34.5580994,12.7324351 L34.5995378,11.9529289 Z M34.4441986,8.58617458 C34.4486968,8.45257452 34.4407363,8.33619208 34.420317,8.23743592 C34.398153,8.13047959 34.3616763,8.04376486 34.3108871,7.97764591 L34.310669,7.97734623 C34.3038535,7.96838326 34.2968472,7.95996515 34.2895682,7.95179223 C34.278827,7.96530479 34.2683856,7.97936222 34.2581896,7.99410073 L34.2582714,7.99339241 C34.1996307,8.07888119 34.1525491,8.18090653 34.1172447,8.29976808 C34.0874746,8.39961397 34.0660739,8.51158303 34.0531789,8.63553904 L34.4441986,8.58617458 Z M34.4126019,7.83086019 C34.4217892,7.84126705 34.4307584,7.85208255 34.4393459,7.86344292 L34.4390188,7.863116 C34.5016943,7.94498146 34.5463768,8.04962213 34.5727119,8.17690179 C34.5959664,8.28925226 34.6050992,8.41931072 34.5999194,8.56647784 L35.317375,8.47597632 C35.3220913,8.34115032 35.3141308,8.22384162 35.2935752,8.12429541 C35.2713839,8.01733908 35.2349072,7.93070608 35.1842271,7.8645054 L35.1838999,7.86420572 C35.13491,7.79963963 35.0726435,7.75455233 34.9969095,7.72905281 C34.9192399,7.70295394 34.8263581,7.69693321 34.7182368,7.71090891 C34.619848,7.72365868 34.5324459,7.75378952 34.4561939,7.80102902 C34.4413361,7.81023718 34.4267509,7.82026264 34.4126019,7.83086019 Z M31.369066,10.3160829 C31.3383962,10.1233381 31.3290453,9.91506477 31.3409315,9.69126287 C31.3616507,9.30152337 31.4335953,8.94480248 31.5569288,8.62169956 C31.6125707,8.47575838 31.6786539,8.33673694 31.7553148,8.20460801 C31.7380852,8.20885793 31.7212372,8.21348925 31.7046892,8.21850198 C31.6468936,8.23596479 31.592315,8.25805893 31.540926,8.28437574 L31.5412531,8.28407607 C31.4917998,8.30971181 31.4387751,8.34392912 31.3823699,8.38648281 C31.3250105,8.42971757 31.265661,8.48068938 31.2044577,8.53915303 L31.2035308,8.5398341 L30.6575809,9.05107774 L31.369066,10.3160829 Z M34.9006199,9.99197198 C34.8772836,10.102252 34.8422518,10.2039504 34.7954974,10.2970945 C34.7378654,10.4120058 34.6625949,10.5135407 34.5698494,10.601209 C34.5527833,10.6174186 34.5351721,10.6330017 34.5170701,10.6479853 C34.5838348,10.6550141 34.6572515,10.6532433 34.7371021,10.6428909 C34.9933382,10.6097633 35.1978854,10.5208964 35.3506892,10.3764808 C35.4255508,10.3056488 35.4864542,10.2232657 35.5333722,10.1299854 C35.56914,10.0585541 35.5969746,9.98055713 35.6166578,9.89613083 L34.9006199,9.99197198 Z M33.764392,7.01373126 C33.4536591,7.06222394 33.1713605,7.15128157 32.917578,7.28101312 C32.6421495,7.42172362 32.3993536,7.61084508 32.189463,7.8483775 L32.1891359,7.84867717 C32.1750687,7.8645054 32.161165,7.88049709 32.1475612,7.8965705 L32.1369018,8.07681072 L32.1313403,8.1717801 L32.0420843,8.16785709 C32.0339057,8.16747569 32.0262451,8.16747569 32.018748,8.16769363 C32.0132684,8.16785709 32.0095607,8.16840195 31.9894686,8.16954616 C31.9766282,8.17033621 31.9627245,8.17126248 31.9498296,8.17248842 C31.9477304,8.1727336 31.9455767,8.17286982 31.9433957,8.17311501 C31.8470243,8.32385097 31.7661378,8.48515724 31.7005998,8.65700659 C31.5842999,8.96180217 31.5163629,9.29997052 31.4966524,9.67110299 C31.4781142,10.0192423 31.5133368,10.3256725 31.6021293,10.5906931 C31.6361523,10.6922554 31.6781086,10.7880148 31.7279437,10.877808 C31.7420927,10.8883238 31.7566234,10.897423 31.7715357,10.90516 L31.7709087,10.9049148 C31.8086939,10.9242302 31.8525313,10.9369799 31.9020664,10.9430007 L31.9022845,10.9433003 C31.9526648,10.9494845 32.0096425,10.9483948 32.0729177,10.9402219 C32.0909925,10.9379062 32.1077041,10.9352636 32.1227528,10.9328117 C32.1328943,10.9310954 32.1461164,10.9284801 32.1587114,10.9259192 C32.1774677,10.9221325 32.1825112,10.9213697 32.1871457,10.9202799 C32.1946428,10.9185909 32.2021944,10.9165749 32.2103185,10.914123 L32.30181,10.8866892 L32.2716854,11.4522828 C32.408759,11.538153 32.5591638,11.6026373 32.7228179,11.6457359 C32.9679583,11.7102203 33.2442319,11.7268113 33.5519388,11.6952366 C33.5459139,11.6937654 33.5399707,11.6922126 33.5339458,11.6906053 C33.2464674,11.614924 32.9974831,11.4779185 32.7862839,11.2799158 C32.5759299,11.0809051 32.4229898,10.8392045 32.3275453,10.5544871 C32.2325098,10.2706687 32.1946428,9.94541356 32.2141897,9.57812236 C32.2349089,9.18846459 32.3068534,8.8317437 32.430187,8.50855905 C32.553984,8.18393051 32.7297152,7.89324685 32.9573806,7.6371619 C32.9574351,7.63708017 32.9575987,7.63694395 32.9576805,7.63686222 L32.9573806,7.6371619 C32.9574351,7.63702568 32.9575987,7.63694395 32.9576805,7.63686222 C33.1846371,7.38017793 33.4468435,7.17590931 33.7440545,7.02392017 C33.75087,7.02054203 33.7575765,7.01713664 33.764392,7.01373126 Z M28.7933743,8.87639511 L29.0520366,8.63823611 L29.0577617,8.63314165 C29.0678759,8.62502321 29.0757546,8.61769483 29.0816978,8.61096578 C29.0865777,8.60548993 29.0905852,8.60023201 29.0938566,8.59513756 C29.0939929,8.59491961 29.0940747,8.59475615 29.0941565,8.59459269 C29.0941565,8.59451096 29.0942383,8.59445648 29.0942383,8.59445648 C29.0967737,8.58979791 29.0989546,8.58448551 29.1006449,8.57860101 C29.1024169,8.57236234 29.1035074,8.56555157 29.1038891,8.55852286 C29.1039708,8.55746038 29.1053612,8.55852286 29.104816,8.55784178 C29.1035074,8.55615271 29.0991727,8.55413672 29.0920573,8.55195727 C29.0919755,8.55195727 29.0919755,8.55195727 29.091921,8.55195727 C29.0918392,8.55190279 29.0916757,8.55190279 29.0915939,8.55190279 C29.077145,8.54803427 29.0568348,8.54593655 29.0303906,8.54588207 C29.0015746,8.54588207 28.9666519,8.54833394 28.9254589,8.55367359 C28.9085292,8.55582579 28.8767689,8.56124716 28.8303143,8.56958355 C28.8237442,8.57072776 28.8167924,8.57211715 28.8094589,8.57342482 L28.7933743,8.87639511 Z M28.7905935,11.3531997 C28.8198184,11.3483504 28.8463172,11.3433377 28.8701169,11.3383795 C28.922351,11.3274822 28.9545748,11.3185465 28.9666519,11.3115995 L28.9700324,11.3095835 C28.9750759,11.306941 28.97832,11.3042439 28.9798467,11.3017103 C28.9829546,11.2964524 28.9848902,11.2875711 28.98549,11.2755297 C28.9863623,11.2594563 28.9827092,11.2378253 28.9746124,11.2108001 C28.965725,11.1813776 28.9517941,11.1473238 28.9327924,11.1087203 C28.9270674,11.1011467 28.9228963,11.0928921 28.9203609,11.0837657 L28.7570612,10.7853722 L28.6884426,10.8487668 L28.6793098,11.0204527 C28.6746753,11.1084751 28.6761474,11.178844 28.6836445,11.2321315 C28.6899148,11.2773822 28.6998109,11.3076493 28.7128694,11.3233958 L28.7120243,11.3225512 C28.7236107,11.3360638 28.7441662,11.3454899 28.7733639,11.3507478 C28.7788436,11.3517558 28.7845686,11.3526004 28.7905935,11.3531997 Z M26.1271998,10.9075574 L26.1656938,10.182946 C26.1568881,10.1935435 26.1480007,10.2038687 26.1388679,10.2141393 L26.1384862,10.2145479 C26.0414333,10.3228119 25.9291409,10.409227 25.8020997,10.4736296 C25.6763671,10.537324 25.5374124,10.5791148 25.3857264,10.5987299 C25.2270067,10.6192711 25.0896604,10.6074476 24.9730606,10.5631232 C24.95853,10.5713233 24.9438357,10.5791966 24.9288416,10.5867701 C24.803109,10.6504645 24.6641815,10.6921736 24.5124682,10.7118704 C24.2588493,10.744671 24.0599454,10.6946527 23.9125667,10.5621152 C23.8766353,10.5297776 23.8454202,10.4939257 23.8190578,10.4543143 C23.8164407,10.488913 23.8142052,10.5239748 23.8123241,10.5597178 C23.797957,10.8294787 23.8025098,11.0609087 23.8259279,11.2539804 C23.8488007,11.4431836 23.8896938,11.5949276 23.9484981,11.7093757 C23.9852201,11.7809433 24.0294119,11.8390256 24.0811007,11.8834318 C24.0927689,11.8710089 24.1040554,11.8579595 24.1149602,11.8444469 C24.1732192,11.7718441 24.2208187,11.6843393 24.2575407,11.5816329 C24.2954077,11.4758481 24.3216883,11.353908 24.3363553,11.2154315 L24.3444794,11.1384425 L25.2177103,11.025302 L25.4682486,10.9928827 L26.1271998,10.9075574 Z M26.6577194,5.33277875 L25.9401275,5.42575938 L25.9072768,6.04349622 L26.0517111,6.02480746 C26.1442931,6.01282051 26.2213356,6.00974204 26.2825389,6.01576276 C26.3526297,6.02262802 26.4048638,6.04210682 26.4389414,6.07438987 C26.4745729,6.10803507 26.4976911,6.17369089 26.5079689,6.27083972 C26.5169926,6.35608331 26.5178377,6.46914209 26.5103407,6.60960741 L26.3909601,8.85460065 C26.44483,9.01841329 26.4665306,9.20173197 26.4557075,9.40491086 C26.447229,9.56406493 26.4167773,9.71095962 26.3645159,9.84540422 C26.3552468,9.86926915 26.3452144,9.8928889 26.3345549,9.91599104 L26.2828388,10.8873975 L26.3415068,10.8797422 L26.3328374,10.9653127 C26.31708,11.1204621 26.290663,11.2679561 26.253723,11.4078766 C26.2479161,11.4695821 26.2392741,11.524259 26.2275241,11.5718254 C26.2093676,11.6458994 26.1833051,11.7041178 26.1491457,11.7465898 L26.1488458,11.7465898 C26.1420576,11.7550896 26.1344787,11.7633443 26.1261911,11.7712175 C26.0200871,12.008532 25.8765252,12.2177316 25.6952325,12.3987619 L25.6955324,12.3987619 C25.652949,12.4414518 25.6086755,12.4822347 25.5627662,12.5210016 L25.5602853,12.56756 L26.2778226,12.4745794 L26.3203242,11.675785 L26.6019957,11.6393338 C26.6949048,11.6272923 26.7688395,11.6113824 26.8238816,11.5916039 C26.8685368,11.5756122 26.8975164,11.5591574 26.9109566,11.5424846 L26.9106567,11.5424846 C26.9261961,11.523251 26.9394727,11.4910497 26.9504593,11.4461803 C26.9635178,11.3930563 26.9722417,11.324649 26.9766581,11.2410127 L27.2279598,6.51665403 C27.2350752,6.38305396 27.2346117,6.27854951 27.2265694,6.20349482 C27.2199175,6.14023639 27.2100213,6.10247748 27.1972082,6.09027258 C27.1835226,6.07738661 27.1559334,6.06888677 27.1146041,6.06488203 C27.0643602,6.05992379 26.9982224,6.06286605 26.9163817,6.0734636 L26.6162265,6.11228499 L26.6577194,5.33277875 Z M28.8848112,10.667219 L29.0647135,10.9956615 L29.0658585,11.0012191 L29.0698933,11.0067767 C29.0943201,11.0555146 29.112313,11.0993759 29.124063,11.1381428 C29.1373396,11.1822221 29.1429829,11.2213977 29.1412108,11.2553698 C29.1392752,11.2914396 29.1307695,11.3247852 29.1153391,11.355134 L29.0750731,12.1122464 L29.3887503,12.071627 L29.4312518,11.2728326 L29.5090577,11.2627799 C29.6048021,11.2503571 29.6828533,11.2378253 29.7433751,11.225239 C29.7956092,11.214369 29.8278329,11.205406 29.8398828,11.198459 L29.8432905,11.196443 C29.8483067,11.1938277 29.8515509,11.1911851 29.8531049,11.1885698 C29.8561855,11.1833119 29.8581211,11.1744306 29.8587481,11.1623892 C29.8595932,11.1463158 29.8559674,11.1247937 29.8478433,11.0976869 C29.8389559,11.0682643 29.8250522,11.0341832 29.8060506,10.9955798 C29.8003255,10.9880062 29.7961544,10.9797516 29.7935918,10.9706524 L29.3779272,10.2113605 L28.8848112,10.667219 Z M29.337743,7.7261378 L28.8511971,7.78915104 L28.8181009,8.41127401 C28.822681,8.41042947 28.8272337,8.4095577 28.8316502,8.40879489 C28.8779957,8.40037678 28.9123186,8.39473746 28.9340192,8.39187694 C28.9815642,8.38577449 29.0228117,8.38291396 29.0577617,8.38291396 C29.0976188,8.38299569 29.1303878,8.38686421 29.1561232,8.39397465 L29.1575953,8.39443779 C29.190746,8.40432702 29.2159361,8.4207546 29.2334929,8.44393846 C29.252958,8.46965593 29.2616273,8.5010672 29.2596099,8.53839022 C29.2585194,8.55876804 29.2550572,8.57906414 29.2493321,8.59892434 C29.2436071,8.61870282 29.2353467,8.63831784 29.2246054,8.65730626 L29.2229697,8.66000333 C29.2130191,8.67662161 29.200942,8.69329437 29.1863568,8.70974919 C29.1722078,8.72565915 29.1562049,8.74110598 29.1380484,8.7555993 L28.7823331,9.08303387 L28.7547439,9.60283183 L29.9252675,8.5250956 L29.9309926,8.52000114 C29.941134,8.51196443 29.9490128,8.50455431 29.9549559,8.497907 C29.9598358,8.49234942 29.9638433,8.4870915 29.9670875,8.48199704 C29.9672511,8.4817791 29.9673329,8.48161564 29.9673874,8.48145218 C29.9674692,8.4813977 29.9674692,8.4813977 29.9674692,8.48131597 C29.9700318,8.47668464 29.9721855,8.471345 29.9738758,8.46554222 C29.9756751,8.45922183 29.9767383,8.45249279 29.9771472,8.44540959 C29.9772017,8.44431987 29.9785921,8.44540959 29.9780741,8.444783 C29.9767383,8.4430122 29.9724309,8.44107794 29.9653155,8.43884401 C29.9653155,8.43884401 29.9652337,8.43884401 29.9652337,8.43884401 C29.9650701,8.43876228 29.9649338,8.43876228 29.964852,8.43876228 C29.9504031,8.43497549 29.9300657,8.43282329 29.9036487,8.43282329 C29.8748055,8.43274156 29.8398828,8.43519343 29.7986898,8.44053308 C29.7817873,8.44276701 29.7499998,8.44810665 29.7035725,8.45652477 C29.6612073,8.46415283 29.6020213,8.47543146 29.5264509,8.49011548 L29.5251969,8.49033343 C29.4947724,8.4957548 29.4654657,8.50076753 29.4384217,8.50509918 L29.4381219,8.50518091 C29.4127682,8.50918564 29.390904,8.51250929 29.3731291,8.51482496 L29.2952414,8.52485041 L29.337743,7.7261378 Z M24.4820438,11.2812507 C24.4647869,11.4027821 24.4383699,11.5132256 24.4026567,11.6130714 C24.3583831,11.7367005 24.2997424,11.8438203 24.2267073,11.9347032 C24.2201372,11.9429034 24.2134035,11.9509946 24.2066152,11.9588951 C24.2906914,11.9916958 24.3897617,12.0007405 24.5039897,11.9859202 C24.6100936,11.9721625 24.703657,11.943748 24.784489,11.9005677 C24.8633854,11.8585588 24.9314042,11.8020294 24.9881911,11.7313064 C25.0464774,11.6587036 25.0940769,11.5712261 25.1307716,11.4685197 C25.1606236,11.3852648 25.1831693,11.2919845 25.1986269,11.1884063 L24.4820438,11.2812507 Z M24.5120048,9.03083613 C24.5417749,9.05276681 24.5708363,9.07725834 24.5989435,9.10444693 L24.7245397,9.2252155 L24.5180297,9.25202269 C24.4178961,9.2649904 24.3288583,9.29046268 24.250807,9.32854851 C24.1838241,9.36113123 24.1243929,9.403358 24.0725404,9.4549564 C24.0052304,9.57605189 23.9504337,9.71858768 23.908232,9.88278172 C23.8927199,9.94339757 23.878789,10.0068739 23.8667392,10.0732926 C23.8708285,10.1329004 23.8812698,10.1871959 23.898036,10.2363152 C23.9243984,10.3133041 23.9667364,10.3781699 24.0252408,10.4307763 C24.1441578,10.5377326 24.308548,10.5776437 24.5211375,10.5500737 C24.6277049,10.5362615 24.7258483,10.5109254 24.8152679,10.4738476 C24.8052082,10.4658926 24.7954756,10.4576379 24.7858794,10.4490019 C24.7112359,10.3817932 24.6570662,10.2990287 24.623452,10.2007085 C24.5903014,10.1038593 24.5771611,9.99268031 24.583813,9.86725317 C24.5902196,9.74632113 24.6130107,9.63574147 24.652268,9.53551418 C24.6923705,9.43278053 24.7494845,9.34135275 24.82361,9.26104015 C24.8972449,9.18119069 24.982875,9.11741464 25.0805549,9.06976649 C25.124365,9.04838067 25.1705742,9.030373 25.2190462,9.01555276 C25.1824877,8.99476629 25.1450024,8.97872012 25.1065084,8.96752321 L25.1053634,8.96706008 C25.0626165,8.95354751 25.0163255,8.94534735 24.9667086,8.94226888 C24.9164919,8.93910868 24.8618587,8.94142434 24.8034361,8.94897068 C24.6980138,8.9626467 24.6007973,8.98999875 24.5120048,9.03083613 Z M23.5635033,8.30330968 C23.2536155,8.35210204 22.9725437,8.44045135 22.7201516,8.56857555 C22.4443687,8.70857774 22.201382,8.89669121 21.9912733,9.13299768 C21.8877866,9.24929839 21.7958316,9.3736358 21.7154631,9.50576474 C21.7746763,9.60724521 21.8243478,9.71651721 21.8643957,9.83349899 C21.9646928,10.1269614 22.0044136,10.4683717 21.9836945,10.8571305 C21.9630571,11.2452626 21.8863417,11.6005669 21.7533301,11.9227435 C21.6976882,12.0573516 21.6323138,12.1861569 21.5571251,12.3089414 C21.621409,12.4201477 21.6975519,12.5198301 21.7855539,12.6080977 C21.9645292,12.7884196 22.1860062,12.9123757 22.4494667,12.9801019 C22.6872463,13.0413444 22.9596488,13.0568729 23.2663742,13.0269873 C23.2646021,13.0264969 23.2628846,13.0260338 23.2611126,13.0256524 C22.9759515,12.9522323 22.735691,12.8176242 22.5409581,12.6213923 C22.3455983,12.4254056 22.2045716,12.1785833 22.117851,11.880653 C22.0318393,11.5852835 21.9993974,11.2398413 22.0204165,10.8443807 C22.0408903,10.4590273 22.1125349,10.1063384 22.2350234,9.78655916 C22.3584114,9.46430077 22.5334611,9.17571483 22.7598725,8.921101 C22.9867745,8.66594232 23.2491991,8.46276343 23.5472824,8.31142812 C23.5526803,8.30870381 23.5580782,8.30600675 23.5635033,8.30330968 Z M18.859572,12.6610855 C18.9295809,12.6047196 18.9883307,12.5351407 19.0354667,12.4525125 L19.0351396,12.4525125 C19.1004595,12.337356 19.1534569,12.1781202 19.1942682,11.9745599 C19.2362245,11.7656599 19.2651223,11.5099019 19.2812069,11.2071768 C19.2973461,10.9036072 19.2954922,10.6506279 19.2754001,10.4487567 C19.2558532,10.2520617 19.219213,10.1036414 19.1653704,10.0039317 L19.1653704,10.003632 C19.126413,9.930893 19.0742607,9.8749902 19.0091861,9.83576017 C18.9393953,9.89242577 18.8808909,9.96271292 18.8336185,10.0465671 L18.8335367,10.046894 C18.7682168,10.1620233 18.7152194,10.3221036 18.6743263,10.5266719 C18.63237,10.7364981 18.6033904,10.9935093 18.5872513,11.297079 C18.5711667,11.5981695 18.5731841,11.8491327 18.593358,12.0496146 C18.6129049,12.2449202 18.6495996,12.3925777 18.7034694,12.4922601 L18.7034694,12.492587 C18.7425632,12.5656257 18.7945792,12.6217737 18.859572,12.6610855 Z M19.1697596,9.73752162 C19.2236295,9.7824727 19.2686118,9.83859345 19.3047068,9.90585661 L19.3047068,9.90555694 C19.3666735,10.0201686 19.4083299,10.186651 19.429976,10.4042688 C19.4510495,10.616792 19.4533668,10.8778897 19.4369278,11.1870169 C19.4205433,11.4953813 19.3903097,11.7594758 19.3461997,11.9793547 C19.3009992,12.2047639 19.2409409,12.383533 19.1658339,12.5159071 L19.1655885,12.5159888 C19.1221601,12.5920515 19.0709347,12.6596961 19.0120486,12.7185411 C19.0915721,12.7344511 19.1836088,12.7355953 19.288077,12.7220827 C19.4359191,12.7029309 19.5616517,12.6608403 19.665193,12.5959745 C19.765899,12.5329613 19.8470309,12.4473363 19.9086976,12.339372 L19.9083978,12.3394537 C19.9736904,12.2242155 20.0267151,12.0649797 20.0674991,11.8615011 C20.1094827,11.6525194 20.1383805,11.3967614 20.1544378,11.0940363 C20.1706042,10.7904667 20.1687504,10.5374874 20.1486583,10.3356979 C20.1291114,10.1390029 20.0924712,9.99050086 20.0386013,9.89081843 L20.0386013,9.89049151 C19.9878394,9.79574008 19.9148043,9.72940318 19.819687,9.69142633 C19.7215436,9.65225078 19.5985918,9.64230706 19.4509132,9.66145894 C19.3460361,9.67505324 19.2523909,9.70036206 19.1697596,9.73752162 Z M13.7331605,15.3829416 C14.7938181,15.2455547 15.7465724,15.3512851 16.4279329,15.6323792 C17.1324935,15.9229812 17.5535832,16.4040122 17.5225045,17.0054304 L17.5245219,17.0051853 L17.4690981,18.0219242 C17.9881949,18.2990953 18.2882683,18.7004949 18.2626693,19.1821525 C18.203865,20.2866959 16.4557675,21.4056782 14.3715561,21.6755754 C13.5685522,21.7795895 12.8297778,21.7424572 12.2281588,21.5943365 C11.645814,21.5692457 11.127426,21.4632973 10.7107255,21.2915297 C10.0058923,21.001173 9.58485714,20.5199784 9.61694458,19.9177974 L9.71707811,18.0172112 L9.71800502,18.0171295 C9.71800502,18.0167481 9.71800502,18.0165301 9.71800502,18.0162032 C9.75009245,17.4139404 10.2284325,16.816309 10.974186,16.337975 C11.695022,15.8757144 12.6723667,15.5203284 13.7331605,15.3829416 Z M10.4475376,19.2075703 L10.3750478,20.5699422 C10.2751869,20.4981295 9.96570805,20.1991912 9.9693339,19.9296754 L10.026039,18.8638444 C9.98500959,18.8175039 9.94768783,18.7694743 9.9143736,18.7198919 L9.8528704,19.8872034 C9.82612633,20.3894841 10.2017702,20.8008546 10.8292064,21.0593914 C11.480197,21.3275995 12.395466,21.4276089 13.4188018,21.2950985 C14.4420285,21.1625065 15.3807429,20.8224039 16.0694369,20.3806028 C16.733268,19.954848 17.1582016,19.4397631 17.1849457,18.9375097 L17.2484663,17.7710972 C17.1955506,17.8510284 17.1354923,17.9298699 17.0688093,18.0074037 L17.0099233,19.115189 C16.8055942,20.3626769 12.94725,21.7174208 11.1407844,20.9113525 L11.2144465,19.5266413 C11.0717024,19.487275 10.9371641,19.4416156 10.811895,19.3899627 C10.6801375,19.335749 10.5582761,19.2747517 10.4475376,19.2075703 Z M13.7201838,15.6280476 C12.6968753,15.7605579 11.7581609,16.1007423 11.0694669,16.5424615 C10.4056358,16.9682709 9.98067492,17.4833558 9.95401263,17.9856365 C9.92729582,18.4878899 10.3029397,18.8992876 10.9303486,19.1578244 C11.5813392,19.4260326 12.4966355,19.5260419 13.5198895,19.3935043 C14.5434979,19.2609123 15.4825121,18.9210548 16.1714515,18.4796352 C16.8349554,18.0544525 17.2597528,17.5399669 17.2864151,17.0379314 C17.3131591,16.5355146 16.9372699,16.1235175 16.3094793,15.8645175 C15.6584069,15.5960097 14.7431924,15.4955372 13.7201838,15.6280476 L13.7201838,15.6280476 Z" id="Fill-52" fill="#2F3293"></path>
                </g>
                <g id="Group-79" transform="translate(6.9516, 15.7709)">
                    <path d="M12.5973981,1.42198162 C12.8375768,2.70197048 10.2156759,4.26738509 6.74118144,4.91833124 C3.26665974,5.56946809 0.255456665,5.05972282 0.0152779567,3.7795705 C-0.224982538,2.49958164 2.39697291,0.934167033 5.87141282,0.283084669 C9.34598905,-0.367915965 12.3572194,0.141992759 12.5973981,1.42198162" id="Fill-54" fill="#00A2D3"></path>
                    <path d="M6.25122778,6.15723753 C6.28058901,5.77558923 5.63431473,5.55557412 4.80767468,5.6658541 C3.98111642,5.77613409 3.2871608,6.17483656 3.25777231,6.55648487 C3.25493705,6.59402583 3.25886279,6.63006843 3.26845903,6.664204 L2.88668121,15.3259505 C2.88035641,15.3469549 2.87610353,15.3677959 2.87441328,15.3885824 C2.85091339,15.6940045 3.36791101,15.8699948 4.02939752,15.781809 C4.69061142,15.6935959 5.24561234,15.3746067 5.26919402,15.0691573 C5.26919402,15.0671685 5.26911223,15.0651525 5.26933033,15.063082 C5.26933033,15.063082 6.24929217,6.18216495 6.25122778,6.15723753" id="Fill-55" fill="#FEFEFE"></path>
                    <path d="M12.992916,4.50369156 C12.859441,4.51900217 11.5042169,4.58980694 10.1938117,5.02697664 C8.92915222,5.44869951 7.97189967,5.94169029 7.43142942,6.38853128 C7.0565489,6.69872099 6.01791911,7.7389435 7.42772178,8.79205199 C8.4263854,9.53780406 11.2645835,11.437464 11.2645835,11.437464 C11.2645835,11.437464 12.0073927,11.9459833 11.2754065,12.6402187 C10.5432022,13.3343179 8.50002021,13.798431 8.385356,13.8216966 C8.28380485,13.8358903 8.27191859,13.8465423 8.27191859,13.8465423 C7.58736838,14.0067861 7.06759003,14.3237866 7.03662033,14.6329411 C6.99888965,15.0096311 7.70004245,15.2319619 8.60274363,15.1295552 C8.83967816,15.1026935 9.02576895,15.1165057 9.23285152,15.0556447 C10.0694695,14.9493149 12.6054404,14.5478337 14.160359,13.1989471 C15.7008287,11.8629737 13.9979044,10.7611273 13.9979044,10.7611273 L10.1299912,8.19828907 C10.1299912,8.19828907 9.30373286,7.34285636 10.6061776,6.73773308 C11.8454016,6.16216853 13.087897,5.86617247 13.087897,5.86617247 C13.8871659,5.70453928 14.4936649,5.38413341 14.5283422,5.03809181 C14.5661547,4.66140175 13.8953718,4.40131207 12.992916,4.50369156" id="Fill-56" fill="#00A2D3"></path>
                    <path d="M25.3486248,2.92615378 C24.5219847,3.03635204 23.828329,3.43508176 23.7987224,3.81678455 C23.7967323,3.84380968 23.7983407,3.87007201 23.8028935,3.89548981 C23.7421536,4.39150456 23.3350766,6.86215222 21.2289192,7.11109948 C19.0103332,7.37320516 18.85115,5.14226935 18.8461338,4.57436011 C18.8569296,4.47544049 18.8629,4.42076363 18.8631181,4.4189111 C18.8926429,4.03726279 18.246205,3.81711147 17.419565,3.92736421 C16.5930067,4.0376442 15.8990511,4.43659186 15.8698262,4.81815843 C15.8667456,4.8556994 15.8706713,4.89176923 15.8804039,4.92574135 L15.4985715,13.5877058 C15.4922467,13.6085468 15.487912,13.6293332 15.4863036,13.6502559 C15.4628037,13.9555146 15.9800194,14.1315049 16.6411515,14.0433191 C17.3025017,13.9551332 17.8576662,13.6361168 17.8810843,13.3308581 C17.881466,13.3286786 17.8811388,13.3266899 17.8811388,13.3244287 C17.8811388,13.3244287 18.2986027,9.54243538 18.5891072,6.90753919 C18.6247114,7.6184746 18.9163609,9.49162704 21.0020444,9.45572066 C22.3502349,9.43248231 23.381831,7.85276509 23.6617306,7.27752746 L23.4275768,12.5862502 C23.4213883,12.6072546 23.4170536,12.6279594 23.4154997,12.6488003 C23.392027,12.9543042 23.9090792,13.1302945 24.5703476,13.0421087 C25.2317796,12.9538411 25.786726,12.6348246 25.8099805,12.3294024 C25.8105258,12.3273047 25.8102804,12.3254522 25.8102804,12.3233 C25.8102804,12.3233 26.790324,3.44241015 26.7920415,3.41753721 C26.8216209,3.03580718 26.1754284,2.8158738 25.3486248,2.92615378" id="Fill-57" fill="#FEFEFE"></path>
                    <path d="M37.486646,1.34692693 C36.6599242,1.45720692 35.9659686,1.85566421 35.9366891,2.2375577 C35.9346717,2.26450111 35.9362257,2.29076343 35.9407784,2.3160995 C35.8800386,2.81225047 35.4729343,5.28297986 33.3665588,5.53170918 C31.1481363,5.79389658 30.9887896,3.56287904 30.9840733,2.99513326 C30.9948963,2.89613191 31.0008394,2.84129159 31.0008394,2.83943906 C31.030446,2.45787249 30.38409,2.2379391 29.5573681,2.34813736 C28.7309462,2.45841735 28.0369088,2.85711982 28.0074658,3.2386864 C28.004685,3.27622736 28.0086108,3.3122972 28.0184251,3.34640553 L27.6365382,12.0082338 C27.6300226,12.0291565 27.625797,12.0499157 27.624243,12.0708656 C27.6008249,12.3762878 28.117659,12.5521964 28.7789274,12.4640105 C29.4403594,12.3758247 29.9954421,12.0568627 30.018942,11.7514405 C30.0191056,11.74937 30.0190238,11.747354 30.0191056,11.7451201 C30.0191056,11.7451201 30.4364604,7.96296335 30.7269648,5.32839407 C30.7627327,6.0390843 31.0543003,7.91231846 33.1397385,7.87633035 C34.4880107,7.85317374 35.5196069,6.27345651 35.7995064,5.69830061 L35.5656525,11.0068599 C35.5591642,11.027946 35.5549931,11.0486235 35.5533846,11.0694917 C35.5298847,11.3748322 36.0468823,11.5508225 36.708069,11.4626366 C37.3695827,11.3744508 37.9245019,11.0554343 37.9480018,10.7500939 C37.9484652,10.7480779 37.9482199,10.7459257 37.9483017,10.7439097 C37.9483017,10.7439097 38.9280454,1.86301984 38.9301991,1.83822864 C38.9595058,1.45641687 38.3132861,1.23664695 37.486646,1.34692693" id="Fill-58" fill="#FEFEFE"></path>
                    <polygon id="Fill-59" fill="#FEFEFE" points="19.2046298 15.0299272 19.4658276 15.7656538 19.9286283 14.933405 20.2648784 14.8885356 19.5822638 16.044296 19.5027677 16.677289 19.1956606 16.7182354 19.2751023 16.0852152 18.8638269 15.0754232"></polygon>
                    <path d="M20.2499661,15.9506071 C20.2485757,15.9691324 20.2492573,15.9849879 20.2499661,16.0008161 C20.2579266,16.1753353 20.378643,16.2982833 20.5627709,16.2829182 C20.7775414,16.2450775 20.9409774,16.0704766 20.967258,15.8549294 C20.9706658,15.8294571 20.971729,15.8042028 20.970584,15.7793299 C20.9627053,15.6071808 20.840435,15.4933592 20.6542896,15.5181504 C20.5579183,15.5310637 20.4610017,15.5827983 20.3814783,15.6686685 C20.3218289,15.7450308 20.2678773,15.8456668 20.2499661,15.9506071 Z M20.7103132,15.2121834 C21.0240449,15.170338 21.2707938,15.3859398 21.2846429,15.6941407 C21.2863331,15.730374 21.2857334,15.7669615 21.2807717,15.8041211 C21.2345625,16.1795852 20.8965403,16.5324103 20.5334097,16.5808485 C20.1994222,16.6253909 19.964178,16.410552 19.9496473,16.0911541 C19.9480388,16.0548664 19.9509831,16.017952 19.9536003,15.9811193 C19.9784088,15.8295933 20.0410842,15.6706845 20.1822744,15.5037933 C20.3613316,15.3246973 20.5488673,15.233651 20.7103132,15.2121834 L20.7103132,15.2121834 Z" id="Fill-60" fill="#FEFEFE"></path>
                    <path d="M21.530165,15.1415966 L21.828221,15.1018489 L21.738965,15.8137651 C21.7357209,15.8414168 21.7345486,15.8667529 21.7355573,15.8915986 C21.7427545,16.0457399 21.8404344,16.1124855 21.9505459,16.1024328 C22.0824669,16.0802024 22.2191589,15.9593249 22.2450578,15.7370214 L22.3348591,15.0342589 L22.6375497,14.9938846 L22.4750405,16.2808205 L22.1994484,16.3175714 L22.2176322,16.1761798 C22.1574921,16.2913363 22.0106042,16.3837721 21.8470046,16.405621 C21.6452108,16.4325644 21.4404455,16.3414363 21.4274415,16.0535587 C21.4255059,16.0126941 21.4258331,15.9693776 21.4325395,15.9206397 L21.530165,15.1415966 Z" id="Fill-61" fill="#FEFEFE"></path>
                    <path d="M22.8751112,14.9622282 L23.1462869,14.9260766 L23.1313473,15.0443933 C23.2114977,14.9219084 23.3080054,14.8610474 23.444561,14.8428217 L23.4064759,15.1420597 C23.232435,15.1857849 23.1317562,15.2494792 23.0981966,15.5070353 L23.0106581,16.2093891 L22.7125203,16.249164 L22.8751112,14.9622282 Z" id="Fill-62" fill="#FEFEFE"></path>
                    <path d="M24.7973315,14.9337864 L24.8848699,14.9221263 C25.0416813,14.9012037 25.1507295,14.8683758 25.172212,14.6967171 C25.1668686,14.5813427 25.0819473,14.5492231 24.9475454,14.5671218 L24.8422866,14.5811792 L24.7973315,14.9337864 Z M24.7027321,15.680492 L24.8597616,15.659542 C25.0188084,15.6383197 25.1621523,15.5668883 25.1852705,15.3813085 C25.1794637,15.2521218 25.0733598,15.2002237 24.9342688,15.218749 L24.7594645,15.2420691 L24.7027321,15.680492 Z M24.9943816,14.2576949 C25.341891,14.2113544 25.4867889,14.3744587 25.4949129,14.553473 C25.4958399,14.5716169 25.496685,14.5919947 25.4932227,14.6129991 C25.4684142,14.8123095 25.3853467,14.9170319 25.2733542,14.986529 C25.4245223,15.0392716 25.5011832,15.1362842 25.5080533,15.2857942 C25.5091983,15.3154347 25.5084349,15.3473363 25.5033369,15.3822347 C25.4770563,15.6000976 25.2566698,15.9098242 24.8308638,15.9665988 L24.3577581,16.0296938 L24.5728284,14.3139246 L24.9943816,14.2576949 Z" id="Fill-63" fill="#FEFEFE"></path>
                    <path d="M25.984076,15.0468452 L26.6678356,14.9556626 C26.64728,14.8511581 26.5492184,14.7274473 26.3562576,14.7531648 C26.1593438,14.7839767 26.0354105,14.9328056 25.984076,15.0468452 Z M26.3901171,14.4546079 C26.672552,14.4169307 26.9397746,14.5886711 26.9549323,14.9218267 C26.9566226,14.9605118 26.9540054,15.0017579 26.9492891,15.043467 C26.942419,15.0921777 26.930969,15.1393627 26.9197643,15.1887271 L25.955887,15.3172872 C25.9716445,15.4681049 26.1078185,15.5386917 26.260595,15.5228635 C26.361192,15.5048831 26.462825,15.4549737 26.540331,15.3739801 L26.8698474,15.330037 C26.7523753,15.5759058 26.5222562,15.7730639 26.2357866,15.8203307 C25.8928844,15.8660446 25.6548867,15.6424879 25.6416646,15.3546647 C25.6405741,15.3273399 25.6415828,15.2976722 25.6447452,15.269966 C25.6526512,15.2460193 25.6542597,15.2298097 25.6579673,15.2111754 C25.6909816,14.9512492 25.9441371,14.5140795 26.3901171,14.4546079 L26.3901171,14.4546079 Z" id="Fill-64" fill="#FEFEFE"></path>
                    <path d="M27.6096306,14.2919939 C27.7956396,14.267121 27.9630286,14.3747039 27.9718343,14.5719983 C27.9726794,14.5900604 27.9713708,14.6107652 27.9700622,14.6313882 L27.6852828,14.6693923 C27.6689801,14.6077412 27.6230163,14.5887528 27.5713819,14.595618 C27.5131774,14.6034368 27.4500658,14.6552531 27.4394608,14.7181029 C27.4412329,14.7543362 27.4606435,14.7882266 27.5178938,14.8057712 C27.589075,14.8327963 27.926552,14.8172677 27.9396923,15.1074065 C27.9104128,15.3529757 27.7373806,15.615381 27.428038,15.656627 C27.3831374,15.6626477 27.3427078,15.6636557 27.2975073,15.6604683 C27.1526913,15.6501432 27.0460421,15.5366757 27.0371547,15.3418605 C27.0363096,15.3214554 27.0374,15.2983805 27.0386268,15.2754419 L27.3390002,15.2353673 C27.3478058,15.3322709 27.4124987,15.3646357 27.475474,15.3607672 C27.5537706,15.3457835 27.6255516,15.2884096 27.635366,15.205073 C27.6303497,15.0962641 27.4338994,15.0928042 27.3073217,15.0389719 C27.1880774,14.9911058 27.1454123,14.8964089 27.1411049,14.801276 C27.140178,14.7831322 27.1416501,14.7647431 27.1430405,14.7463812 C27.1522278,14.6994959 27.1659134,14.6543269 27.1801987,14.620491 C27.2683097,14.4218617 27.4637241,14.3114455 27.6096306,14.2919939" id="Fill-65" fill="#FEFEFE"></path>
                    <polygon id="Fill-66" fill="#FEFEFE" points="28.3072121 13.8158121 28.6052954 13.776119 28.5527341 14.2049523 28.7364259 14.1804063 28.7015032 14.4517473 28.5175661 14.4763206 28.3903068 15.4918881 28.0920054 15.531663 28.2193465 14.5160955 28.0759208 14.5352474 28.1110888 14.2637973 28.2545145 14.2447272"></polygon>
                    <path d="M30.237093,14.3017197 C30.3802188,14.2734414 30.530051,14.1965342 30.5542325,14.035909 C30.5557864,14.0198355 30.5574221,14.0037076 30.5566315,13.9877977 C30.5503885,13.8518002 30.4214117,13.8416113 30.2978328,13.853571 L30.1364687,13.8751203 L30.0803089,14.3226424 L30.237093,14.3017197 Z M29.8673104,13.6077022 L30.3200787,13.5473043 C30.7281098,13.4929544 30.8563233,13.6856174 30.8659741,13.8986038 C30.8678279,13.9371256 30.8650471,13.9763011 30.8599491,14.0135152 C30.7992093,14.3156954 30.5982879,14.5567149 30.243963,14.6039817 L30.0422783,14.6309251 L29.9592108,15.2825523 L29.6521038,15.3235531 L29.8673104,13.6077022 Z" id="Fill-67" fill="#FEFEFE"></path>
                    <path d="M31.9369094,14.3872902 C31.9400718,14.3595568 31.9413804,14.3365363 31.9401536,14.3116634 C31.9315115,14.121316 31.7877587,14.0332119 31.617289,14.0559871 C31.4246281,14.0816229 31.2312856,14.2488954 31.1995253,14.4901328 C31.1961993,14.5157686 31.1951089,14.5387072 31.1960358,14.561428 C31.2050868,14.7607383 31.3734027,14.8409692 31.5301868,14.8200465 C31.7407862,14.7874638 31.9082297,14.6032733 31.9369094,14.3872902 Z M31.6084834,13.7631512 C31.7878405,13.7392863 31.9481141,13.7929552 32.0036742,13.9224688 L32.0270923,13.7415202 L32.2984042,13.7053959 L32.135677,14.9923318 L31.8644196,15.0284833 L31.8858203,14.8524113 C31.7838875,14.9914055 31.5884731,15.1063168 31.4314981,15.1272395 C31.1131864,15.1697115 30.912674,14.9730982 30.8983614,14.6603476 C30.8962895,14.6127812 30.8983614,14.5623542 30.9050951,14.511219 C30.9765762,14.0480321 31.319233,13.8017547 31.6084834,13.7631512 L31.6084834,13.7631512 Z" id="Fill-68" fill="#FEFEFE"></path>
                    <path d="M32.522362,13.6754285 L32.7935377,13.639277 L32.7787889,13.7575937 C32.8589939,13.6351088 32.9552835,13.5742477 33.0919754,13.5560221 L33.0537267,13.8553691 C32.8797676,13.899067 32.779007,13.9627068 32.7455565,14.2202356 L32.6580725,14.9226712 L32.3598529,14.9624461 L32.522362,13.6754285 Z" id="Fill-69" fill="#FEFEFE"></path>
                    <polygon id="Fill-70" fill="#FEFEFE" points="33.3347985 13.1452782 33.6330182 13.1055033 33.5803206 13.5343366 33.7641486 13.5098451 33.7290624 13.7812134 33.5452343 13.8057049 33.417866 14.8212725 33.1197282 14.8610474 33.2470965 13.8454798 33.1036436 13.8646317 33.1387298 13.5932634 33.2823191 13.5741115"></polygon>
                    <path d="M34.1898729,13.453016 L34.1731885,13.5805954 C34.2889432,13.4490113 34.4211642,13.3787241 34.5444432,13.3622693 C34.7618036,13.3333099 34.9416513,13.4690894 34.9540828,13.7431548 C34.9560185,13.7840739 34.9556368,13.8273359 34.9487395,13.8738944 L34.8547127,14.6296991 L34.5565748,14.6693923 L34.6408691,13.9946629 C34.6456672,13.9553512 34.6465941,13.9233133 34.6452038,13.8915751 C34.6374613,13.7239212 34.542344,13.6657572 34.4370034,13.6798147 C34.3047007,13.6975227 34.1660731,13.8209066 34.1440454,13.9857 L34.0499368,14.7369551 L33.7518535,14.77673 L33.9142263,13.4897669 L34.1898729,13.453016 Z" id="Fill-71" fill="#FEFEFE"></path>
                    <path d="M35.451997,13.7839922 L36.1358929,13.6928096 C36.1152556,13.5883869 36.017194,13.4645943 35.8243149,13.4903118 C35.6273193,13.5211237 35.503386,13.6700072 35.451997,13.7839922 Z M35.8581744,13.1917549 C36.1405275,13.1540777 36.407832,13.3258181 36.4229079,13.6589737 C36.4245981,13.6976589 36.4221445,13.7389049 36.4171828,13.7806141 C36.4103128,13.8294064 36.3989445,13.8765097 36.3878216,13.9258742 L35.423699,14.0544343 C35.4397018,14.2052519 35.5758758,14.2758388 35.7285706,14.2600105 C35.8291948,14.2420301 35.9308005,14.1921208 36.0083065,14.1111271 L36.3377412,14.067184 C36.2202963,14.3130528 35.9903136,14.510211 35.7038439,14.5574777 C35.3608872,14.6031916 35.122944,14.3796349 35.1096401,14.0918118 C35.1085497,14.0645687 35.1095583,14.0348192 35.1126662,14.007113 C35.1206267,13.9832481 35.1220989,13.9670112 35.1258611,13.9483225 C35.159039,13.688478 35.4121126,13.2513083 35.8581744,13.1917549 L35.8581744,13.1917549 Z" id="Fill-72" fill="#FEFEFE"></path>
                    <path d="M36.6961009,13.1187979 L36.9672493,13.0825646 L36.9522552,13.2008813 C37.0324874,13.0783964 37.1288588,13.0176171 37.2655507,12.9993915 L37.2273839,13.2986567 C37.0535065,13.3423546 36.9526641,13.4060762 36.9191863,13.6635233 L36.8316479,14.3659589 L36.53351,14.4057338 L36.6961009,13.1187979 Z" id="Fill-73" fill="#FEFEFE"></path>
                    <path d="M38.6046022,12.4693229 L39.1912195,12.4289487 L38.879551,13.7066219 L38.2935148,13.7469416 L38.6046022,12.4693229 Z M38.8484317,13.8455616 L38.7739884,14.1447178 L38.1876352,14.1850921 L38.26192,13.8859358 L38.8484317,13.8455616 Z" id="Fill-74" fill="#FEFEFE"></path>
                    <polygon id="Fill-75" fill="#00A2D3" points="17.2704961 16.3240007 2.49140867 18.2952283 2.44868902 17.9752855 17.2277492 16.004058"></polygon>
                    <path d="M9.5835506,1.75859711 C9.49917454,1.40105893 9.29367317,1.10923106 9.04801478,0.876084787 C10.4248031,0.885974025 11.1254925,1.13701901 11.3251052,1.22297092 C11.4105718,1.34807114 11.4690761,1.48284266 11.4904769,1.62763963 C11.1337529,1.64570179 10.4404788,1.68564015 9.5835506,1.75859711 Z M8.80366498,3.07318469 C8.5184221,3.0368969 8.18481632,3.01218743 7.80685519,3.01319542 C7.47995588,3.01395823 7.14356938,3.04678614 6.82037771,3.09560574 C6.81064516,2.91860745 6.7979683,2.75226121 6.78152928,2.61269491 C6.77441388,2.55194284 6.76498121,2.48514281 6.75432175,2.4143108 C7.08877265,2.36519153 7.42515915,2.32010423 7.75808337,2.28103765 C8.19277684,2.22998412 8.5784804,2.19097203 8.92072825,2.16149502 C8.92947937,2.57193926 8.88231601,2.85417757 8.80366498,3.07318469 Z M6.49465067,1.08040789 C6.88313496,1.02025517 7.32987826,0.965823492 7.84224133,0.923814663 C8.11063627,0.901802254 8.3609292,0.888371416 8.59554645,0.881560646 C8.74616931,1.1122278 8.86524996,1.40035061 8.89717383,1.75374785 C8.89924575,1.77660479 8.90096326,1.79837201 8.9026535,1.82046615 C8.61100404,1.84896241 8.30760462,1.8807006 7.99788041,1.91644352 C7.56419563,1.96640733 7.12966573,2.03160002 6.70293278,2.10689989 C6.64241101,1.77058407 6.56321474,1.39310396 6.49465067,1.08040789 Z M9.06448107,0.00583184624 C9.31995379,0.0697168683 10.8092526,0.469427335 11.3243146,1.22190844 C11.0698506,1.10443628 10.0582648,0.676774415 8.74284334,0.626265745 C8.24154866,0.270334908 7.71301919,0.115430756 7.71301919,0.115430756 C7.71301919,0.115430756 8.07075188,0.267310926 8.39437974,0.622015825 C8.27230026,0.623868354 8.14817612,0.62896281 8.02206185,0.638307187 C7.40724798,0.68380313 6.88460711,0.758694356 6.44279824,0.847588525 C6.38546614,0.592511569 6.34435496,0.420062874 6.34435496,0.420062874 C6.34435496,0.420062874 6.33066941,0.60109314 6.32110043,0.873060805 C4.8627713,1.18592033 4.34299295,1.64692773 4.34299295,1.64692773 C4.34299295,1.64692773 4.90420962,1.34444781 6.31469384,1.10923106 C6.30872345,1.42560495 6.31183133,1.81027724 6.34203769,2.17315506 C5.4432895,2.34465025 4.59205909,2.55439472 3.8760212,2.75092629 C3.9250929,1.25634369 5.40921193,0.615368513 5.40921193,0.615368513 C5.40921193,0.615368513 3.38252347,1.4690849 3.18915371,2.49996304 C3.15979248,2.65617486 3.15987427,2.80554867 3.18321058,2.94849311 C2.35100908,3.19466158 1.824497,3.38285677 1.824497,3.38285677 C1.824497,3.38285677 2.36769346,3.24803077 3.2077737,3.06670083 C3.31109689,3.46703789 3.59633977,3.81060037 3.93226282,4.09125858 C3.53977101,4.30299179 3.27440216,4.5362198 3.13784652,4.67268039 C2.15641253,4.28114284 1.16633646,3.56827317 2.20518435,2.42575289 C3.99510186,0.456977247 7.61394888,0.0564222454 7.61394888,0.0564222454 C7.20229185,0.093500077 6.77765807,0.14978428 6.34536366,0.22639182 C3.1084035,0.80048524 0.667658943,2.29809182 0.893852217,3.57176029 C1.05371691,4.47282515 2.50572124,5.0202476 4.48775446,5.06010422 C4.48775446,5.06010422 4.0754704,4.98820974 3.57177666,4.82750281 C3.58265422,4.77113688 3.62292028,4.61367187 3.75963948,4.40825905 C3.80969262,4.33334058 3.90399207,4.24477333 4.01271315,4.15680543 C4.68202387,4.68526669 5.50449282,4.97246324 5.50449282,4.97246324 C5.50449282,4.97246324 4.84507822,4.48848992 4.36502069,3.90012113 C4.51547997,3.79918552 4.63287038,3.7285987 4.63287038,3.7285987 C4.63287038,3.7285987 4.6317799,3.72914356 4.34585546,3.87671932 C4.09842505,3.56881804 3.9036104,3.2341368 3.878393,2.92585411 C4.61122431,2.77579923 5.47829398,2.61201383 6.37434322,2.47201164 C6.40247766,2.67856867 6.4440523,2.91334954 6.49118839,3.15150854 C5.60440825,3.31831792 4.89267777,3.57647334 4.89267777,3.57647334 C4.89267777,3.57647334 5.58987758,3.41206135 6.5268199,3.32779851 C6.59102204,3.63763406 6.66111278,3.94229342 6.71986251,4.18748113 C6.54186855,4.20399044 6.36583746,4.22777365 6.2170139,4.26261755 C5.66460287,4.3917225 5.30921472,4.71629656 5.30921472,4.71629656 L5.55108367,4.92805702 C5.55108367,4.92805702 5.72024473,4.59506485 6.41916204,4.39087797 C6.5329266,4.35775038 6.64273816,4.3295538 6.74813326,4.30476259 C6.80925479,4.55637968 6.85230158,4.7212548 6.85230158,4.7212548 C6.85230158,4.7212548 6.8539373,4.54262192 6.85221979,4.28122457 C7.34187357,4.1744317 7.69750708,4.15386317 7.69750708,4.15386317 C7.69750708,4.15386317 7.28816732,4.14500917 6.85153824,4.17666563 C6.84897561,3.92088036 6.84325057,3.606359 6.83060098,3.3043967 C7.11011884,3.28595314 7.40476713,3.27598217 7.704677,3.28053177 C8.08836317,3.28625281 8.40204038,3.32433864 8.65704965,3.37708124 C8.57460919,3.51198897 8.48126391,3.62976081 8.38860019,3.76227115 C8.06371827,4.22755571 7.62199119,4.58539356 7.62199119,4.58539356 C7.62199119,4.58539356 8.45182089,4.16832925 9.04321666,3.48071392 C9.46725067,3.62496602 9.62343499,3.79370966 9.62343499,3.79370966 L9.96415616,3.34231907 C9.96415616,3.34231907 9.72722163,3.24277286 9.28974743,3.15319761 C9.48625233,2.84946451 9.62057247,2.50674657 9.62482535,2.13367984 C9.62490714,2.12558864 9.62411654,2.11809679 9.62403475,2.1101963 C10.6903355,2.0475917 11.1869139,2.09676546 11.4210677,2.12033073 C11.3740951,2.23347124 11.3056946,2.35116134 11.2107954,2.47348277 C9.82899089,4.25812244 7.52695566,4.77413361 6.84226914,4.8916875 C6.94921818,4.87506923 7.05638532,4.85763365 7.16442485,4.83853626 C10.4012214,4.26460629 12.8419933,2.76678177 12.6158818,1.49324952 C12.4569985,0.598695749 11.0244865,0.0527171865 9.06448107,0.00583184624 L9.06448107,0.00583184624 Z" id="Fill-76" fill="#FEFEFE"></path>
                    <path d="M6.84232367,4.8916875 C6.77618592,4.90203987 6.71004817,4.91222879 6.6444284,4.92149143 C6.6444284,4.92149143 6.71582773,4.913373 6.84232367,4.8916875" id="Fill-77" fill="#FEFEFE"></path>
                    <path d="M40.1960309,2.94492427 L40.4657889,2.94121921 L40.4607727,2.58267303 L40.7234426,2.93759588 L41.0466343,2.93310077 L40.7416809,2.55989782 C40.9068344,2.52884071 41.0124749,2.39039138 41.0099123,2.20889798 C41.0083038,2.09120787 40.9556608,1.97700488 40.869649,1.91167598 C40.7937787,1.85111461 40.7161091,1.83343385 40.5311906,1.8359947 L40.1807096,1.84084397 L40.1960309,2.94492427 Z M40.4581555,2.39039138 L40.4539026,2.08518715 L40.5560536,2.08371603 C40.6739074,2.08210869 40.7385185,2.13485129 40.7398271,2.23145525 C40.7412174,2.33015693 40.6754614,2.38736739 40.5577711,2.38900198 L40.4581555,2.39039138 Z M40.5592978,1.37318926 C39.9927105,1.38106251 39.5359075,1.84719161 39.5437044,2.40829008 C39.5516104,2.97265772 40.021063,3.42549219 40.5907582,3.41761894 C41.1523292,3.40982742 41.6140667,2.94407973 41.6064333,2.39300671 C41.5984728,1.81605277 41.1369534,1.36515256 40.5592978,1.37318926 Z M40.5621603,1.57882003 C41.0198084,1.57249964 41.3863467,1.93104581 41.3927533,2.39322466 C41.3987782,2.82900496 41.031313,3.19814869 40.5847333,3.2044146 C40.135291,3.21057154 39.7637365,2.85172569 39.757548,2.40529334 C39.7512777,1.95621841 40.112718,1.58508594 40.5621603,1.57882003 L40.5621603,1.57882003 Z" id="Fill-78" fill="#FEFEFE"></path>
                </g>
            </g>
        </g>
    </g>
</svg>