<?xml version="1.0" encoding="UTF-8"?>
<svg width="24px" height="24px" viewBox="0 0 24 24" version="1.1" xmlns="http://www.w3.org/2000/svg" xmlns:xlink="http://www.w3.org/1999/xlink">
    <title>4781830_frame_gallery_image_images_photo_icon</title>
    <g id="1.-Design" stroke="none" stroke-width="1" fill="none" fill-rule="evenodd">
        <g id="Gallery" transform="translate(-628, -406)">
            <g id="Top-story" transform="translate(260, 112)">
                <g id="Group-3" transform="translate(320, 162)">
                    <g id="4781830_frame_gallery_image_images_photo_icon" transform="translate(48, 132)">
                        <g id="Layer_2" transform="translate(2.25, 3.75)" fill="#002855" fill-rule="nonzero">
                            <path d="M17.25,16.5 L2.25,16.5 C1.00735931,16.5 0,15.4926407 0,14.25 L0,2.25 C0,1.00735931 1.00735931,0 2.25,0 L17.25,0 C18.4926407,0 19.5,1.00735931 19.5,2.25 L19.5,14.25 C19.5,15.4926407 18.4926407,16.5 17.25,16.5 Z M2.25,1.5 C1.83578644,1.5 1.5,1.83578644 1.5,2.25 L1.5,14.25 C1.5,14.6642136 1.83578644,15 2.25,15 L17.25,15 C17.6642136,15 18,14.6642136 18,14.25 L18,2.25 C18,1.83578644 17.6642136,1.5 17.25,1.5 L2.25,1.5 Z" id="Shape"></path>
                            <path d="M13.5,7.5 C12.2573593,7.5 11.25,6.49264069 11.25,5.25 C11.25,4.00735931 12.2573593,3 13.5,3 C14.7426407,3 15.75,4.00735931 15.75,5.25 C15.75,5.8467371 15.5129471,6.41903341 15.0909903,6.84099026 C14.6690334,7.26294711 14.0967371,7.5 13.5,7.5 Z M13.5,4.5 C13.0857864,4.5 12.75,4.83578644 12.75,5.25 C12.75,5.66421356 13.0857864,6 13.5,6 C13.9142136,6 14.25,5.66421356 14.25,5.25 C14.25,4.83578644 13.9142136,4.5 13.5,4.5 Z" id="Shape"></path>
                            <path d="M17.25,16.5000461 C16.9991107,16.498702 16.7654876,16.3720389 16.6275,16.1625 L13.3725,11.2875 C13.2331787,11.0801779 12.9997857,10.9558225 12.75,10.9558225 C12.5002143,10.9558225 12.2668213,11.0801779 12.1275,11.2875 L11.8725,11.6625 C11.6295658,11.9640936 11.1969567,12.0311347 10.874134,11.817216 C10.5513112,11.6032973 10.4444405,11.1787696 10.6275,10.8375 L10.875,10.455 C11.2918677,9.82654832 11.995858,9.4487343 12.75,9.4487343 C13.504142,9.4487343 14.2081323,9.82654832 14.625,10.455 L17.8725,15.3375 C18.0984355,15.681662 18.0047062,16.1436131 17.6625,16.3725 C17.5417179,16.457094 17.3974504,16.5016858 17.25,16.5000461 L17.25,16.5000461 Z" id="Path"></path>
                            <path d="M2.25,16.5 C2.10629133,16.4996276 1.9657152,16.4579754 1.845,16.38 C1.49757542,16.1559676 1.39694127,15.6930505 1.62,15.345 L6.2925,8.13 C6.70445041,7.49345386 7.40929682,7.10719803 8.1675,7.10249984 L8.1675,7.10249984 C8.92140136,7.10221852 9.62534127,7.47953031 10.0425,8.1075 L14.8575,15.3375 C15.0405595,15.6787696 14.9336888,16.1032973 14.610866,16.317216 C14.2880433,16.5311347 13.8554342,16.4640936 13.6125,16.1625 L8.79,8.94 C8.65201238,8.73046109 8.41838932,8.60379799 8.1675,8.60249984 L8.1675,8.60249984 C7.91517405,8.60545469 7.68124805,8.73510042 7.545,8.9475 L2.88,16.155 C2.74230337,16.3696201 2.50499406,16.4995752 2.25,16.5 Z" id="Path"></path>
                        </g>
                        <g id="frame">
                            <rect id="Rectangle" x="0" y="0" width="24" height="24"></rect>
                        </g>
                    </g>
                </g>
            </g>
        </g>
    </g>
</svg>