<?xml version="1.0" encoding="UTF-8"?>
<svg width="10px" height="8px" viewBox="0 0 10 8" version="1.1" xmlns="http://www.w3.org/2000/svg" xmlns:xlink="http://www.w3.org/1999/xlink">
    <title>right-arrow-6@1x</title>
    <g id="3.-Symboly" stroke="none" stroke-width="1" fill="none" fill-rule="evenodd">
        <g id="right-arrow" fill="#FFCD00" fill-rule="nonzero">
            <g id="right-arrow-6">
                <path d="M9.84016177,3.62637792 L6.2288098,0.153545462 C6.12572123,0.0544132593 5.988324,0 5.84182116,0 C5.69515572,0 5.55783979,0.0544914393 5.45475122,0.153545462 L5.12686778,0.468923462 C5.02386051,0.567899304 4.96711301,0.700101634 4.96711301,0.84106012 C4.96711301,0.981940427 5.02386051,1.11859901 5.12686778,1.21757486 L7.23367946,3.24798687 L0.540239393,3.24798687 C0.238453294,3.24798687 0,3.47517786 0,3.76546009 L0,4.21132046 C0,4.50160269 0.238453294,4.75170041 0.540239393,4.75170041 L7.2575817,4.75170041 L5.12694908,6.79344852 C5.02394181,6.89258072 4.96719431,7.02118677 4.96719431,7.16214526 C4.96719431,7.30294738 5.02394181,7.43342976 5.12694908,7.53248378 L5.45483252,7.84684544 C5.55792109,7.94597764 5.69523702,8 5.84190246,8 C5.9884053,8 6.12580253,7.94527402 6.2288911,7.84614182 L9.84024307,4.37338754 C9.94357554,4.27394262 10.0004043,4.14119303 10,4.00007818 C10.000323,3.85849425 9.94357554,3.72566648 9.84016177,3.62637792 Z" id="Path"></path>
            </g>
        </g>
    </g>
</svg>