<svg width="24" height="24" viewBox="0 0 24 24" xmlns="http://www.w3.org/2000/svg"><g fill="none" fill-rule="evenodd"><g fill="#002855" fill-rule="nonzero"><path d="M19.5 20.25h-15A2.25 2.25 0 012.25 18V6A2.25 2.25 0 014.5 3.75h15A2.25 2.25 0 0121.75 6v12a2.25 2.25 0 01-2.25 2.25zm-15-15a.75.75 0 00-.75.75v12c0 .414.336.75.75.75h15a.75.75 0 00.75-.75V6a.75.75 0 00-.75-.75h-15z"/><path d="M15.75 11.25a2.25 2.25 0 110-4.5 2.25 2.25 0 010 4.5zm0-3a.75.75 0 100 1.5.75.75 0 000-1.5zM19.5 20.25a.75.75 0 01-.622-.337l-3.255-4.876a.75.75 0 00-1.245 0l-.255.375a.75.75 0 01-1.245-.825l.247-.382a2.25 2.25 0 013.75 0l3.247 4.883a.75.75 0 01-.21 1.034.705.705 0 01-.412.128z"/><path d="M4.5 20.25a.75.75 0 01-.63-1.155l4.673-7.215a2.25 2.25 0 011.875-1.028 2.25 2.25 0 011.875 1.005l4.815 7.23a.75.75 0 01-1.245.825L11.04 12.69a.75.75 0 00-.622-.338.75.75 0 00-.623.345L5.13 19.905a.75.75 0 01-.63.345z"/></g><path d="M0 0h24v24H0z"/></g></svg>