<?xml version="1.0" encoding="UTF-8"?>
<svg width="24px" height="24px" viewBox="0 0 24 24" version="1.1" xmlns="http://www.w3.org/2000/svg" xmlns:xlink="http://www.w3.org/1999/xlink">
    <title>search-svgrepo-com-3@1x</title>
    <g id="1.-Design" stroke="none" stroke-width="1" fill="none" fill-rule="evenodd">
        <g id="HP-2" transform="translate(-1572, -24)" fill="#FFCD00">
            <g id="search-svgrepo-com-3" transform="translate(1572, 24)">
                <path d="M3.00304858,10.5080702 C3.00304858,6.36275096 6.36349377,3.00230577 10.508813,3.00230577 C14.6541322,3.00230577 18.0145774,6.36275096 18.0145774,10.5080702 C18.0145774,14.6533894 14.6541322,18.0138346 10.508813,18.0138346 C6.36349377,18.0138346 3.00304858,14.6533894 3.00304858,10.5080702 Z M10.508813,0 C5.93683489,0 1.8895342,2.95621241 0.498738945,7.31151634 C-0.892056311,11.6668203 0.692867495,16.4215917 4.41868606,19.0713577 C8.14450462,21.7211237 13.1560726,21.6577132 16.8136551,18.9145263 C16.8563283,18.971306 16.9029815,19.0249822 16.9532623,19.0751497 L21.456721,23.5786083 C22.0457417,24.1475036 22.9820196,24.1393676 23.561065,23.5603222 C24.1401104,22.9812768 24.1482464,22.0449989 23.5793512,21.4559782 L19.0758925,16.9525195 C19.025725,16.9022387 18.9720488,16.8555855 18.9152691,16.8129123 C21.3033672,13.6287816 21.6874999,9.36868468 19.9075167,5.80871834 C18.1275335,2.24875199 14.4889764,0 10.508813,0 L10.508813,0 Z" id="Shape"></path>
            </g>
        </g>
    </g>
</svg>